<?xml version="1.0" encoding="utf-8" standalone="no"?>
<!DOCTYPE svg PUBLIC "-//W3C//DTD SVG 1.1//EN"
  "http://www.w3.org/Graphics/SVG/1.1/DTD/svg11.dtd">
<!-- Created with matplotlib (http://matplotlib.org/) -->
<svg height="396pt" version="1.1" viewBox="0 0 576 396" width="576pt" xmlns="http://www.w3.org/2000/svg" xmlns:xlink="http://www.w3.org/1999/xlink">
 <defs>
  <style type="text/css">
*{stroke-linecap:butt;stroke-linejoin:round;stroke-miterlimit:100000;}
  </style>
 </defs>
 <g id="figure_1">
  <g id="patch_1">
   <path d="M 0 396 
L 576 396 
L 576 0 
L 0 0 
z
" style="fill:#ffffff;"/>
  </g>
  <g id="axes_1">
   <g id="patch_2">
    <path d="M 72 265.261765 
L 518.4 265.261765 
L 518.4 39.6 
L 72 39.6 
z
" style="fill:#eaeaf2;"/>
   </g>
   <g id="matplotlib.axis_1">
    <g id="xtick_1">
     <g id="line2d_1">
      <path clip-path="url(#pe5f19b5164)" d="M 106.338462 265.261765 
L 106.338462 39.6 
" style="fill:none;stroke:#ffffff;stroke-linecap:round;"/>
     </g>
     <g id="line2d_2">
      <defs>
       <path d="M 0 0 
L 0 0 
" id="m89a49eee0b" style="stroke:#262626;"/>
      </defs>
      <g>
       <use style="fill:#262626;stroke:#262626;" x="106.338461538" xlink:href="#m89a49eee0b" y="265.261764706"/>
      </g>
     </g>
     <g id="line2d_3">
      <g>
       <use style="fill:#262626;stroke:#262626;" x="106.338461538" xlink:href="#m89a49eee0b" y="39.6"/>
      </g>
     </g>
    </g>
    <g id="xtick_2">
     <g id="line2d_4">
      <path clip-path="url(#pe5f19b5164)" d="M 175.015385 265.261765 
L 175.015385 39.6 
" style="fill:none;stroke:#ffffff;stroke-linecap:round;"/>
     </g>
     <g id="line2d_5">
      <g>
       <use style="fill:#262626;stroke:#262626;" x="175.015384615" xlink:href="#m89a49eee0b" y="265.261764706"/>
      </g>
     </g>
     <g id="line2d_6">
      <g>
       <use style="fill:#262626;stroke:#262626;" x="175.015384615" xlink:href="#m89a49eee0b" y="39.6"/>
      </g>
     </g>
    </g>
    <g id="xtick_3">
     <g id="line2d_7">
      <path clip-path="url(#pe5f19b5164)" d="M 243.692308 265.261765 
L 243.692308 39.6 
" style="fill:none;stroke:#ffffff;stroke-linecap:round;"/>
     </g>
     <g id="line2d_8">
      <g>
       <use style="fill:#262626;stroke:#262626;" x="243.692307692" xlink:href="#m89a49eee0b" y="265.261764706"/>
      </g>
     </g>
     <g id="line2d_9">
      <g>
       <use style="fill:#262626;stroke:#262626;" x="243.692307692" xlink:href="#m89a49eee0b" y="39.6"/>
      </g>
     </g>
    </g>
    <g id="xtick_4">
     <g id="line2d_10">
      <path clip-path="url(#pe5f19b5164)" d="M 312.369231 265.261765 
L 312.369231 39.6 
" style="fill:none;stroke:#ffffff;stroke-linecap:round;"/>
     </g>
     <g id="line2d_11">
      <g>
       <use style="fill:#262626;stroke:#262626;" x="312.369230769" xlink:href="#m89a49eee0b" y="265.261764706"/>
      </g>
     </g>
     <g id="line2d_12">
      <g>
       <use style="fill:#262626;stroke:#262626;" x="312.369230769" xlink:href="#m89a49eee0b" y="39.6"/>
      </g>
     </g>
    </g>
    <g id="xtick_5">
     <g id="line2d_13">
      <path clip-path="url(#pe5f19b5164)" d="M 381.046154 265.261765 
L 381.046154 39.6 
" style="fill:none;stroke:#ffffff;stroke-linecap:round;"/>
     </g>
     <g id="line2d_14">
      <g>
       <use style="fill:#262626;stroke:#262626;" x="381.046153846" xlink:href="#m89a49eee0b" y="265.261764706"/>
      </g>
     </g>
     <g id="line2d_15">
      <g>
       <use style="fill:#262626;stroke:#262626;" x="381.046153846" xlink:href="#m89a49eee0b" y="39.6"/>
      </g>
     </g>
    </g>
    <g id="xtick_6">
     <g id="line2d_16">
      <path clip-path="url(#pe5f19b5164)" d="M 449.723077 265.261765 
L 449.723077 39.6 
" style="fill:none;stroke:#ffffff;stroke-linecap:round;"/>
     </g>
     <g id="line2d_17">
      <g>
       <use style="fill:#262626;stroke:#262626;" x="449.723076923" xlink:href="#m89a49eee0b" y="265.261764706"/>
      </g>
     </g>
     <g id="line2d_18">
      <g>
       <use style="fill:#262626;stroke:#262626;" x="449.723076923" xlink:href="#m89a49eee0b" y="39.6"/>
      </g>
     </g>
    </g>
    <g id="xtick_7">
     <g id="line2d_19">
      <path clip-path="url(#pe5f19b5164)" d="M 518.4 265.261765 
L 518.4 39.6 
" style="fill:none;stroke:#ffffff;stroke-linecap:round;"/>
     </g>
     <g id="line2d_20">
      <g>
       <use style="fill:#262626;stroke:#262626;" x="518.4" xlink:href="#m89a49eee0b" y="265.261764706"/>
      </g>
     </g>
     <g id="line2d_21">
      <g>
       <use style="fill:#262626;stroke:#262626;" x="518.4" xlink:href="#m89a49eee0b" y="39.6"/>
      </g>
     </g>
    </g>
   </g>
   <g id="matplotlib.axis_2">
    <g id="ytick_1">
     <g id="line2d_22">
      <path clip-path="url(#pe5f19b5164)" d="M 72 265.261765 
L 518.4 265.261765 
" style="fill:none;stroke:#ffffff;stroke-linecap:round;"/>
     </g>
     <g id="line2d_23">
      <g>
       <use style="fill:#262626;stroke:#262626;" x="72.0" xlink:href="#m89a49eee0b" y="265.261764706"/>
      </g>
     </g>
     <g id="line2d_24">
      <g>
       <use style="fill:#262626;stroke:#262626;" x="518.4" xlink:href="#m89a49eee0b" y="265.261764706"/>
      </g>
     </g>
     <g id="text_1">
      <!-- −5.0 -->
      <defs>
       <path d="M 9.078125 0 
L 9.078125 10.015625 
L 19.09375 10.015625 
L 19.09375 0 
z
" id="ArialMT-2e"/>
       <path d="M 52.828125 31.203125 
L 5.5625 31.203125 
L 5.5625 39.40625 
L 52.828125 39.40625 
z
" id="ArialMT-2212"/>
       <path d="M 4.15625 18.75 
L 13.375 19.53125 
Q 14.40625 12.796875 18.140625 9.390625 
Q 21.875 6 27.15625 6 
Q 33.5 6 37.890625 10.78125 
Q 42.28125 15.578125 42.28125 23.484375 
Q 42.28125 31 38.0625 35.34375 
Q 33.84375 39.703125 27 39.703125 
Q 22.75 39.703125 19.328125 37.765625 
Q 15.921875 35.84375 13.96875 32.765625 
L 5.71875 33.84375 
L 12.640625 70.609375 
L 48.25 70.609375 
L 48.25 62.203125 
L 19.671875 62.203125 
L 15.828125 42.96875 
Q 22.265625 47.46875 29.34375 47.46875 
Q 38.71875 47.46875 45.15625 40.96875 
Q 51.609375 34.46875 51.609375 24.265625 
Q 51.609375 14.546875 45.953125 7.46875 
Q 39.0625 -1.21875 27.15625 -1.21875 
Q 17.390625 -1.21875 11.203125 4.25 
Q 5.03125 9.71875 4.15625 18.75 
" id="ArialMT-35"/>
       <path d="M 4.15625 35.296875 
Q 4.15625 48 6.765625 55.734375 
Q 9.375 63.484375 14.515625 67.671875 
Q 19.671875 71.875 27.484375 71.875 
Q 33.25 71.875 37.59375 69.546875 
Q 41.9375 67.234375 44.765625 62.859375 
Q 47.609375 58.5 49.21875 52.21875 
Q 50.828125 45.953125 50.828125 35.296875 
Q 50.828125 22.703125 48.234375 14.96875 
Q 45.65625 7.234375 40.5 3 
Q 35.359375 -1.21875 27.484375 -1.21875 
Q 17.140625 -1.21875 11.234375 6.203125 
Q 4.15625 15.140625 4.15625 35.296875 
M 13.1875 35.296875 
Q 13.1875 17.671875 17.3125 11.828125 
Q 21.4375 6 27.484375 6 
Q 33.546875 6 37.671875 11.859375 
Q 41.796875 17.71875 41.796875 35.296875 
Q 41.796875 52.984375 37.671875 58.78125 
Q 33.546875 64.59375 27.390625 64.59375 
Q 21.34375 64.59375 17.71875 59.46875 
Q 13.1875 52.9375 13.1875 35.296875 
" id="ArialMT-30"/>
      </defs>
      <g style="fill:#262626;" transform="translate(39.3371875 268.622467831)scale(0.13 -0.13)">
       <use xlink:href="#ArialMT-2212"/>
       <use x="58.3984375" xlink:href="#ArialMT-35"/>
       <use x="114.013671875" xlink:href="#ArialMT-2e"/>
       <use x="141.796875" xlink:href="#ArialMT-30"/>
      </g>
     </g>
    </g>
    <g id="ytick_2">
     <g id="line2d_25">
      <path clip-path="url(#pe5f19b5164)" d="M 72 240.188235 
L 518.4 240.188235 
" style="fill:none;stroke:#ffffff;stroke-linecap:round;"/>
     </g>
     <g id="line2d_26">
      <g>
       <use style="fill:#262626;stroke:#262626;" x="72.0" xlink:href="#m89a49eee0b" y="240.188235294"/>
      </g>
     </g>
     <g id="line2d_27">
      <g>
       <use style="fill:#262626;stroke:#262626;" x="518.4" xlink:href="#m89a49eee0b" y="240.188235294"/>
      </g>
     </g>
     <g id="text_2">
      <!-- −4.5 -->
      <defs>
       <path d="M 32.328125 0 
L 32.328125 17.140625 
L 1.265625 17.140625 
L 1.265625 25.203125 
L 33.9375 71.578125 
L 41.109375 71.578125 
L 41.109375 25.203125 
L 50.78125 25.203125 
L 50.78125 17.140625 
L 41.109375 17.140625 
L 41.109375 0 
z
M 32.328125 25.203125 
L 32.328125 57.46875 
L 9.90625 25.203125 
z
" id="ArialMT-34"/>
      </defs>
      <g style="fill:#262626;" transform="translate(39.3371875 243.548938419)scale(0.13 -0.13)">
       <use xlink:href="#ArialMT-2212"/>
       <use x="58.3984375" xlink:href="#ArialMT-34"/>
       <use x="114.013671875" xlink:href="#ArialMT-2e"/>
       <use x="141.796875" xlink:href="#ArialMT-35"/>
      </g>
     </g>
    </g>
    <g id="ytick_3">
     <g id="line2d_28">
      <path clip-path="url(#pe5f19b5164)" d="M 72 215.114706 
L 518.4 215.114706 
" style="fill:none;stroke:#ffffff;stroke-linecap:round;"/>
     </g>
     <g id="line2d_29">
      <g>
       <use style="fill:#262626;stroke:#262626;" x="72.0" xlink:href="#m89a49eee0b" y="215.114705882"/>
      </g>
     </g>
     <g id="line2d_30">
      <g>
       <use style="fill:#262626;stroke:#262626;" x="518.4" xlink:href="#m89a49eee0b" y="215.114705882"/>
      </g>
     </g>
     <g id="text_3">
      <!-- −4.0 -->
      <g style="fill:#262626;" transform="translate(39.3371875 218.475409007)scale(0.13 -0.13)">
       <use xlink:href="#ArialMT-2212"/>
       <use x="58.3984375" xlink:href="#ArialMT-34"/>
       <use x="114.013671875" xlink:href="#ArialMT-2e"/>
       <use x="141.796875" xlink:href="#ArialMT-30"/>
      </g>
     </g>
    </g>
    <g id="ytick_4">
     <g id="line2d_31">
      <path clip-path="url(#pe5f19b5164)" d="M 72 190.041176 
L 518.4 190.041176 
" style="fill:none;stroke:#ffffff;stroke-linecap:round;"/>
     </g>
     <g id="line2d_32">
      <g>
       <use style="fill:#262626;stroke:#262626;" x="72.0" xlink:href="#m89a49eee0b" y="190.041176471"/>
      </g>
     </g>
     <g id="line2d_33">
      <g>
       <use style="fill:#262626;stroke:#262626;" x="518.4" xlink:href="#m89a49eee0b" y="190.041176471"/>
      </g>
     </g>
     <g id="text_4">
      <!-- −3.5 -->
      <defs>
       <path d="M 4.203125 18.890625 
L 12.984375 20.0625 
Q 14.5 12.59375 18.140625 9.296875 
Q 21.78125 6 27 6 
Q 33.203125 6 37.46875 10.296875 
Q 41.75 14.59375 41.75 20.953125 
Q 41.75 27 37.796875 30.921875 
Q 33.84375 34.859375 27.734375 34.859375 
Q 25.25 34.859375 21.53125 33.890625 
L 22.515625 41.609375 
Q 23.390625 41.5 23.921875 41.5 
Q 29.546875 41.5 34.03125 44.421875 
Q 38.53125 47.359375 38.53125 53.46875 
Q 38.53125 58.296875 35.25 61.46875 
Q 31.984375 64.65625 26.8125 64.65625 
Q 21.6875 64.65625 18.265625 61.421875 
Q 14.84375 58.203125 13.875 51.765625 
L 5.078125 53.328125 
Q 6.6875 62.15625 12.390625 67.015625 
Q 18.109375 71.875 26.609375 71.875 
Q 32.46875 71.875 37.390625 69.359375 
Q 42.328125 66.84375 44.9375 62.5 
Q 47.5625 58.15625 47.5625 53.265625 
Q 47.5625 48.640625 45.0625 44.828125 
Q 42.578125 41.015625 37.703125 38.765625 
Q 44.046875 37.3125 47.5625 32.6875 
Q 51.078125 28.078125 51.078125 21.140625 
Q 51.078125 11.765625 44.234375 5.25 
Q 37.40625 -1.265625 26.953125 -1.265625 
Q 17.53125 -1.265625 11.296875 4.34375 
Q 5.078125 9.96875 4.203125 18.890625 
" id="ArialMT-33"/>
      </defs>
      <g style="fill:#262626;" transform="translate(39.3371875 193.401879596)scale(0.13 -0.13)">
       <use xlink:href="#ArialMT-2212"/>
       <use x="58.3984375" xlink:href="#ArialMT-33"/>
       <use x="114.013671875" xlink:href="#ArialMT-2e"/>
       <use x="141.796875" xlink:href="#ArialMT-35"/>
      </g>
     </g>
    </g>
    <g id="ytick_5">
     <g id="line2d_34">
      <path clip-path="url(#pe5f19b5164)" d="M 72 164.967647 
L 518.4 164.967647 
" style="fill:none;stroke:#ffffff;stroke-linecap:round;"/>
     </g>
     <g id="line2d_35">
      <g>
       <use style="fill:#262626;stroke:#262626;" x="72.0" xlink:href="#m89a49eee0b" y="164.967647059"/>
      </g>
     </g>
     <g id="line2d_36">
      <g>
       <use style="fill:#262626;stroke:#262626;" x="518.4" xlink:href="#m89a49eee0b" y="164.967647059"/>
      </g>
     </g>
     <g id="text_5">
      <!-- −3.0 -->
      <g style="fill:#262626;" transform="translate(39.3371875 168.328350184)scale(0.13 -0.13)">
       <use xlink:href="#ArialMT-2212"/>
       <use x="58.3984375" xlink:href="#ArialMT-33"/>
       <use x="114.013671875" xlink:href="#ArialMT-2e"/>
       <use x="141.796875" xlink:href="#ArialMT-30"/>
      </g>
     </g>
    </g>
    <g id="ytick_6">
     <g id="line2d_37">
      <path clip-path="url(#pe5f19b5164)" d="M 72 139.894118 
L 518.4 139.894118 
" style="fill:none;stroke:#ffffff;stroke-linecap:round;"/>
     </g>
     <g id="line2d_38">
      <g>
       <use style="fill:#262626;stroke:#262626;" x="72.0" xlink:href="#m89a49eee0b" y="139.894117647"/>
      </g>
     </g>
     <g id="line2d_39">
      <g>
       <use style="fill:#262626;stroke:#262626;" x="518.4" xlink:href="#m89a49eee0b" y="139.894117647"/>
      </g>
     </g>
     <g id="text_6">
      <!-- −2.5 -->
      <defs>
       <path d="M 50.34375 8.453125 
L 50.34375 0 
L 3.03125 0 
Q 2.9375 3.171875 4.046875 6.109375 
Q 5.859375 10.9375 9.828125 15.625 
Q 13.8125 20.3125 21.34375 26.46875 
Q 33.015625 36.03125 37.109375 41.625 
Q 41.21875 47.21875 41.21875 52.203125 
Q 41.21875 57.421875 37.46875 61 
Q 33.734375 64.59375 27.734375 64.59375 
Q 21.390625 64.59375 17.578125 60.78125 
Q 13.765625 56.984375 13.71875 50.25 
L 4.6875 51.171875 
Q 5.609375 61.28125 11.65625 66.578125 
Q 17.71875 71.875 27.9375 71.875 
Q 38.234375 71.875 44.234375 66.15625 
Q 50.25 60.453125 50.25 52 
Q 50.25 47.703125 48.484375 43.546875 
Q 46.734375 39.40625 42.65625 34.8125 
Q 38.578125 30.21875 29.109375 22.21875 
Q 21.1875 15.578125 18.9375 13.203125 
Q 16.703125 10.84375 15.234375 8.453125 
z
" id="ArialMT-32"/>
      </defs>
      <g style="fill:#262626;" transform="translate(39.3371875 143.254820772)scale(0.13 -0.13)">
       <use xlink:href="#ArialMT-2212"/>
       <use x="58.3984375" xlink:href="#ArialMT-32"/>
       <use x="114.013671875" xlink:href="#ArialMT-2e"/>
       <use x="141.796875" xlink:href="#ArialMT-35"/>
      </g>
     </g>
    </g>
    <g id="ytick_7">
     <g id="line2d_40">
      <path clip-path="url(#pe5f19b5164)" d="M 72 114.820588 
L 518.4 114.820588 
" style="fill:none;stroke:#ffffff;stroke-linecap:round;"/>
     </g>
     <g id="line2d_41">
      <g>
       <use style="fill:#262626;stroke:#262626;" x="72.0" xlink:href="#m89a49eee0b" y="114.820588235"/>
      </g>
     </g>
     <g id="line2d_42">
      <g>
       <use style="fill:#262626;stroke:#262626;" x="518.4" xlink:href="#m89a49eee0b" y="114.820588235"/>
      </g>
     </g>
     <g id="text_7">
      <!-- −2.0 -->
      <g style="fill:#262626;" transform="translate(39.3371875 118.18129136)scale(0.13 -0.13)">
       <use xlink:href="#ArialMT-2212"/>
       <use x="58.3984375" xlink:href="#ArialMT-32"/>
       <use x="114.013671875" xlink:href="#ArialMT-2e"/>
       <use x="141.796875" xlink:href="#ArialMT-30"/>
      </g>
     </g>
    </g>
    <g id="ytick_8">
     <g id="line2d_43">
      <path clip-path="url(#pe5f19b5164)" d="M 72 89.747059 
L 518.4 89.747059 
" style="fill:none;stroke:#ffffff;stroke-linecap:round;"/>
     </g>
     <g id="line2d_44">
      <g>
       <use style="fill:#262626;stroke:#262626;" x="72.0" xlink:href="#m89a49eee0b" y="89.7470588235"/>
      </g>
     </g>
     <g id="line2d_45">
      <g>
       <use style="fill:#262626;stroke:#262626;" x="518.4" xlink:href="#m89a49eee0b" y="89.7470588235"/>
      </g>
     </g>
     <g id="text_8">
      <!-- −1.5 -->
      <defs>
       <path d="M 37.25 0 
L 28.46875 0 
L 28.46875 56 
Q 25.296875 52.984375 20.140625 49.953125 
Q 14.984375 46.921875 10.890625 45.40625 
L 10.890625 53.90625 
Q 18.265625 57.375 23.78125 62.296875 
Q 29.296875 67.234375 31.59375 71.875 
L 37.25 71.875 
z
" id="ArialMT-31"/>
      </defs>
      <g style="fill:#262626;" transform="translate(39.3371875 93.1077619485)scale(0.13 -0.13)">
       <use xlink:href="#ArialMT-2212"/>
       <use x="58.3984375" xlink:href="#ArialMT-31"/>
       <use x="114.013671875" xlink:href="#ArialMT-2e"/>
       <use x="141.796875" xlink:href="#ArialMT-35"/>
      </g>
     </g>
    </g>
    <g id="ytick_9">
     <g id="line2d_46">
      <path clip-path="url(#pe5f19b5164)" d="M 72 64.673529 
L 518.4 64.673529 
" style="fill:none;stroke:#ffffff;stroke-linecap:round;"/>
     </g>
     <g id="line2d_47">
      <g>
       <use style="fill:#262626;stroke:#262626;" x="72.0" xlink:href="#m89a49eee0b" y="64.6735294118"/>
      </g>
     </g>
     <g id="line2d_48">
      <g>
       <use style="fill:#262626;stroke:#262626;" x="518.4" xlink:href="#m89a49eee0b" y="64.6735294118"/>
      </g>
     </g>
     <g id="text_9">
      <!-- −1.0 -->
      <g style="fill:#262626;" transform="translate(39.3371875 68.0342325368)scale(0.13 -0.13)">
       <use xlink:href="#ArialMT-2212"/>
       <use x="58.3984375" xlink:href="#ArialMT-31"/>
       <use x="114.013671875" xlink:href="#ArialMT-2e"/>
       <use x="141.796875" xlink:href="#ArialMT-30"/>
      </g>
     </g>
    </g>
    <g id="ytick_10">
     <g id="line2d_49">
      <path clip-path="url(#pe5f19b5164)" d="M 72 39.6 
L 518.4 39.6 
" style="fill:none;stroke:#ffffff;stroke-linecap:round;"/>
     </g>
     <g id="line2d_50">
      <g>
       <use style="fill:#262626;stroke:#262626;" x="72.0" xlink:href="#m89a49eee0b" y="39.6"/>
      </g>
     </g>
     <g id="line2d_51">
      <g>
       <use style="fill:#262626;stroke:#262626;" x="518.4" xlink:href="#m89a49eee0b" y="39.6"/>
      </g>
     </g>
     <g id="text_10">
      <!-- −0.5 -->
      <g style="fill:#262626;" transform="translate(39.3371875 42.960703125)scale(0.13 -0.13)">
       <use xlink:href="#ArialMT-2212"/>
       <use x="58.3984375" xlink:href="#ArialMT-30"/>
       <use x="114.013671875" xlink:href="#ArialMT-2e"/>
       <use x="141.796875" xlink:href="#ArialMT-35"/>
      </g>
     </g>
    </g>
    <g id="text_11">
     <!-- $\log_{10}(\bar{M}_{\rm filt}(z) / {\rm M_{\odot}})$ -->
     <defs>
      <path d="M 28.703125 67.59375 
L 5.90625 -1.40625 
L -0.90625 -1.40625 
L 22 67.59375 
z
" id="STIXGeneral-Regular-2f"/>
      <path d="M 93.296875 66.203125 
L 76.796875 0 
L 68.296875 0 
L 81.796875 54.296875 
L 43.203125 0 
L 41.09375 0 
L 29.40625 54.09375 
L 16 0 
L 7.5 0 
L 24 66.203125 
L 36.296875 66.203125 
L 46.703125 18 
L 81 66.203125 
z
" id="STIXGeneral-Italic-1d614"/>
      <path d="M 30.203125 0 
L 22.296875 0 
L 22.296875 57 
Q 20.09375 56 15.75 53.75 
Q 11.40625 51.5 10.796875 51.203125 
L 10.796875 58.5 
L 28.796875 67.703125 
L 30.203125 67.203125 
z
" id="STIXGeneral-Regular-1d7e3"/>
      <path d="M 14.40625 0 
L 6.09375 0 
L 6.09375 66 
L 13.5 68.40625 
L 14.40625 67.90625 
z
" id="STIXGeneral-Regular-1d5c5"/>
      <path d="M 30.40625 -16.09375 
L 29.203125 -17.703125 
Q 17.59375 -11.09375 11.1875 0.5 
Q 4.796875 12.09375 4.796875 25.203125 
Q 4.796875 52.90625 29.5 67.59375 
L 30.40625 66 
Q 20.203125 57.296875 16.796875 48.84375 
Q 13.40625 40.40625 13.40625 25.5 
Q 13.40625 10.703125 16.90625 1.5 
Q 20.40625 -7.703125 30.40625 -16.09375 
" id="STIXGeneral-Regular-28"/>
      <path d="M 44.40625 25.296875 
Q 44.40625 22.703125 42.65625 20.796875 
Q 40.90625 18.90625 38.09375 18.90625 
Q 35.203125 18.90625 33.453125 20.65625 
Q 31.703125 22.40625 31.703125 25.296875 
Q 31.703125 28 33.640625 29.796875 
Q 35.59375 31.59375 38.09375 31.59375 
Q 40.59375 31.59375 42.5 29.796875 
Q 44.40625 28 44.40625 25.296875 
M 51.796875 58.296875 
Q 71.203125 38.90625 71.203125 25.203125 
Q 71.203125 11.5 61.5 1.796875 
Q 51.796875 -7.90625 38.09375 -7.90625 
Q 24.40625 -7.90625 14.703125 1.796875 
Q 5 11.5 5 25.203125 
Q 5 38.90625 14.703125 48.59375 
Q 24.40625 58.296875 38.09375 58.296875 
Q 51.796875 58.296875 71.203125 38.90625 
M 49 -1.296875 
Q 64.59375 14.203125 64.59375 25.203125 
Q 64.59375 36.203125 56.796875 43.953125 
Q 49 51.703125 38.09375 51.703125 
Q 27.203125 51.703125 19.390625 43.953125 
Q 11.59375 36.203125 11.59375 25.203125 
Q 11.59375 14.203125 19.390625 6.453125 
Q 27.203125 -1.296875 38.09375 -1.296875 
Q 49 -1.296875 64.59375 14.203125 
" id="STIXGeneral-Regular-2299"/>
      <path d="M 47.09375 22.90625 
Q 47.09375 19 45.6875 14.953125 
Q 44.296875 10.90625 41.6875 7.25 
Q 39.09375 3.59375 34.6875 1.296875 
Q 30.296875 -1 24.796875 -1 
Q 15.09375 -1 8.9375 5.84375 
Q 2.796875 12.703125 2.796875 22.90625 
Q 2.796875 32.59375 8.796875 39.4375 
Q 14.796875 46.296875 24.5 46.296875 
Q 34.59375 46.296875 40.84375 40 
Q 47.09375 33.703125 47.09375 22.90625 
M 39.203125 22.796875 
Q 39.203125 30.40625 35.140625 34.796875 
Q 31.09375 39.203125 24.59375 39.203125 
Q 18.296875 39.203125 14.5 34.390625 
Q 10.703125 29.59375 10.703125 22.796875 
Q 10.703125 15.59375 14.703125 10.84375 
Q 18.703125 6.09375 24.90625 6.09375 
Q 31.59375 6.09375 35.390625 11.4375 
Q 39.203125 16.796875 39.203125 22.796875 
" id="STIXGeneral-Regular-1d5c8"/>
      <path d="M 46.703125 36.90625 
L 38.90625 36.90625 
Q 40.5 33.796875 40.5 29.90625 
Q 40.5 22.796875 35.75 18.296875 
Q 31 13.796875 23.796875 13.796875 
Q 20.796875 13.796875 17.703125 14.59375 
Q 13.59375 12.203125 13.59375 10.203125 
Q 13.59375 6.59375 18.40625 6.40625 
Q 20.09375 6.40625 23.640625 6.25 
Q 27.203125 6.09375 28.90625 6 
Q 45.796875 5.296875 45.796875 -5.90625 
Q 45.796875 -13.90625 38 -17.75 
Q 30.203125 -21.59375 19.296875 -21.59375 
Q 11.59375 -21.59375 6.84375 -18.6875 
Q 2.09375 -15.796875 2.09375 -10.296875 
Q 2.09375 -2.90625 9.09375 1 
Q 5.40625 3.5 5.40625 7.296875 
Q 5.40625 11.90625 9.796875 15.90625 
Q 10.296875 16.40625 11.5 17.796875 
Q 6.296875 22.5 6.296875 29.59375 
Q 6.296875 36.5 11.390625 41.390625 
Q 16.5 46.296875 24.203125 46.296875 
Q 27.90625 46.296875 31.703125 44.90625 
Q 35.296875 43.59375 39.90625 43.59375 
L 46.703125 43.59375 
z
M 32.59375 29.703125 
Q 32.59375 34.296875 30.25 36.75 
Q 27.90625 39.203125 23.59375 39.203125 
Q 19.59375 39.203125 16.890625 36.5 
Q 14.203125 33.796875 14.203125 30.203125 
Q 14.203125 26 16.796875 23.5 
Q 19.40625 21 23.90625 21 
Q 27.796875 21 30.1875 23.5 
Q 32.59375 26 32.59375 29.703125 
M 20.09375 -1.5 
L 18.09375 -1.5 
Q 10 -3.90625 10 -8.59375 
Q 10 -14.40625 20.09375 -14.40625 
Q 28.5 -14.40625 32.40625 -12.90625 
Q 34.796875 -11.90625 36.296875 -10.25 
Q 37.796875 -8.59375 37.796875 -6.703125 
Q 37.796875 -3.5 34.5 -2.703125 
Q 30 -1.5 20.09375 -1.5 
" id="STIXGeneral-Regular-1d5c0"/>
      <path d="M 15.59375 58.59375 
L 6.40625 58.59375 
L 6.40625 67.90625 
L 15.59375 67.90625 
z
M 15.203125 0 
L 6.90625 0 
L 6.90625 44 
L 14.296875 46.40625 
L 15.203125 45.90625 
z
" id="STIXGeneral-Regular-1d5c2"/>
      <path d="M 47.703125 33 
Q 47.703125 23.796875 45.546875 16.34375 
Q 43.40625 8.90625 38.09375 3.75 
Q 32.796875 -1.40625 25 -1.40625 
Q 18.796875 -1.40625 14.25 1.6875 
Q 9.703125 4.796875 7.203125 10.046875 
Q 4.703125 15.296875 3.5 21.140625 
Q 2.296875 27 2.296875 33.59375 
Q 2.296875 42.90625 4.59375 50.34375 
Q 6.90625 57.796875 12.296875 62.6875 
Q 17.703125 67.59375 25.40625 67.59375 
Q 35.203125 67.59375 41.453125 57.9375 
Q 47.703125 48.296875 47.703125 33 
M 39.796875 33 
Q 39.796875 45.203125 35.75 52.84375 
Q 31.703125 60.5 25.203125 60.5 
Q 17.796875 60.5 14 52.75 
Q 10.203125 45 10.203125 33.40625 
Q 10.203125 28.203125 10.953125 23.546875 
Q 11.703125 18.90625 13.34375 14.75 
Q 15 10.59375 18 8.140625 
Q 21 5.703125 25 5.703125 
Q 30.09375 5.703125 33.546875 9.796875 
Q 37 13.90625 38.390625 19.84375 
Q 39.796875 25.796875 39.796875 33 
" id="STIXGeneral-Regular-1d7e2"/>
      <path d="M 36.90625 63.296875 
L 34.5 57.40625 
L 32.90625 57.296875 
Q 30.796875 58.796875 29.796875 59.4375 
Q 28.796875 60.09375 27.5 60.640625 
Q 26.203125 61.203125 24.90625 61.203125 
Q 21.796875 61.203125 19.890625 58.703125 
Q 18 56.203125 18 50.90625 
L 18 45.296875 
L 29.40625 45.296875 
L 29.40625 38.203125 
L 18 38.203125 
L 18 0 
L 10.09375 0 
L 10.09375 38.203125 
L 2 38.203125 
L 2 45.296875 
L 10.09375 45.296875 
L 10.09375 49.40625 
Q 10.09375 59.296875 14.796875 64.296875 
Q 18.796875 68.296875 24.203125 68.296875 
Q 31 68.296875 36.90625 63.296875 
" id="STIXGeneral-Regular-1d5bf"/>
      <path d="M -7.40625 54.703125 
L -38.5 54.703125 
L -38.5 60.09375 
L -7.40625 60.09375 
z
" id="STIXGeneral-Regular-304"/>
      <path d="M 2.90625 66 
L 4.09375 67.59375 
Q 15.5 60.796875 22 49.1875 
Q 28.5 37.59375 28.5 24.703125 
Q 28.5 -2.59375 3.796875 -17.703125 
L 2.90625 -16.09375 
Q 13.203125 -7.59375 16.546875 0.84375 
Q 19.90625 9.296875 19.90625 24.40625 
Q 19.90625 39.59375 16.546875 48.75 
Q 13.203125 57.90625 2.90625 66 
" id="STIXGeneral-Regular-29"/>
      <path d="M 28.703125 8.703125 
L 27.59375 1.203125 
Q 24.703125 -1 18.796875 -1 
Q 13.703125 -1 10.890625 2.046875 
Q 8.09375 5.09375 8.09375 10.40625 
L 8.09375 38.203125 
L 0.09375 38.203125 
L 0.09375 39.90625 
L 4.59375 45.296875 
L 8.09375 45.296875 
L 8.09375 51.703125 
L 14.203125 58 
L 16 58 
L 16 45.296875 
L 26.40625 45.296875 
L 26.40625 38.203125 
L 16 38.203125 
L 16 13.703125 
Q 16 9.296875 17.296875 7.6875 
Q 18.59375 6.09375 21.09375 6.09375 
Q 24.796875 6.09375 27.5 8.703125 
z
" id="STIXGeneral-Regular-1d5cd"/>
      <path d="M 76.796875 0 
L 68.296875 0 
L 68.296875 54.296875 
L 43.203125 0 
L 41.09375 0 
L 16 54.09375 
L 16 0 
L 7.5 0 
L 7.5 66.203125 
L 19.796875 66.203125 
L 42.296875 18 
L 64.5 66.203125 
L 76.796875 66.203125 
z
" id="STIXGeneral-Regular-1d5ac"/>
      <path d="M 51.703125 45.296875 
L 51.203125 43.296875 
L 17 7.09375 
L 43.40625 7.09375 
L 40.703125 0 
L 2.5 0 
L 2.90625 2 
L 37.09375 38.203125 
L 14.40625 38.203125 
L 17.296875 45.296875 
z
" id="STIXGeneral-Italic-1d63b"/>
     </defs>
     <g style="fill:#262626;" transform="translate(31.1911875 202.552382353)rotate(-90.0)scale(0.14300000000000002 -0.14300000000000002)">
      <use transform="translate(0.0 0.90625)" xlink:href="#STIXGeneral-Regular-1d5c5"/>
      <use transform="translate(20.499984741210938 0.90625)" xlink:href="#STIXGeneral-Regular-1d5c8"/>
      <use transform="translate(70.39997863769531 0.90625)" xlink:href="#STIXGeneral-Regular-1d5c0"/>
      <use transform="translate(120.79266479492188 -12.682812499999997)scale(0.7)" xlink:href="#STIXGeneral-Regular-1d7e3"/>
      <use transform="translate(155.79265411376954 -12.682812499999997)scale(0.7)" xlink:href="#STIXGeneral-Regular-1d7e2"/>
      <use transform="translate(193.0574871826172 0.90625)" xlink:href="#STIXGeneral-Regular-28"/>
      <use transform="translate(301.93247192382813 24.90625)" xlink:href="#STIXGeneral-Regular-304"/>
      <use transform="translate(226.35747497558594 0.90625)" xlink:href="#STIXGeneral-Italic-1d614"/>
      <use transform="translate(311.45015808105467 -12.682812499999997)scale(0.7)" xlink:href="#STIXGeneral-Regular-1d5bf"/>
      <use transform="translate(334.9701516723632 -12.682812499999997)scale(0.7)" xlink:href="#STIXGeneral-Regular-1d5c2"/>
      <use transform="translate(350.37014099121086 -12.682812499999997)scale(0.7)" xlink:href="#STIXGeneral-Regular-1d5c5"/>
      <use transform="translate(364.72013031005855 -12.682812499999997)scale(0.7)" xlink:href="#STIXGeneral-Regular-1d5cd"/>
      <use transform="translate(387.3549676513672 0.90625)" xlink:href="#STIXGeneral-Regular-28"/>
      <use transform="translate(420.65495544433594 0.90625)" xlink:href="#STIXGeneral-Italic-1d63b"/>
      <use transform="translate(465.3549523925781 0.90625)" xlink:href="#STIXGeneral-Regular-29"/>
      <use transform="translate(498.6549401855469 0.90625)" xlink:href="#STIXGeneral-Regular-2f"/>
      <use transform="translate(526.4549279785156 0.90625)" xlink:href="#STIXGeneral-Regular-1d5ac"/>
      <use transform="translate(611.5476110839843 -12.682812499999997)scale(0.7)" xlink:href="#STIXGeneral-Regular-2299"/>
      <use transform="translate(667.1524420166015 0.90625)" xlink:href="#STIXGeneral-Regular-29"/>
     </g>
    </g>
   </g>
   <g id="PolyCollection_1">
    <defs>
     <path d="M 72 -343.685347 
L 72 -335.734475 
L 73.304862 -334.949212 
L 74.644062 -334.173563 
L 75.983262 -333.371917 
L 77.3568 -332.525422 
L 78.764677 -331.715831 
L 80.172554 -330.860759 
L 81.614769 -330.018666 
L 83.091323 -329.160933 
L 84.567877 -328.260044 
L 86.078769 -327.306977 
L 87.624 -326.324769 
L 89.203569 -325.321519 
L 90.783138 -324.308836 
L 92.431385 -323.291783 
L 94.079631 -322.198514 
L 95.762215 -321.113975 
L 97.479138 -320.073786 
L 99.2304 -318.987784 
L 101.016 -317.902071 
L 102.835938 -316.799584 
L 104.690215 -315.701619 
L 106.578831 -314.560023 
L 108.501785 -313.355074 
L 110.459077 -312.166924 
L 112.485046 -310.896803 
L 114.511015 -309.67458 
L 116.605662 -308.459234 
L 118.734646 -307.11448 
L 120.932308 -305.834173 
L 123.164308 -304.429977 
L 125.430646 -302.999914 
L 127.765662 -301.54263 
L 130.135015 -300.064349 
L 132.573046 -298.388781 
L 135.079754 -296.847972 
L 137.6208 -295.319038 
L 140.230523 -293.719875 
L 142.908923 -292.09327 
L 145.656 -290.502652 
L 148.471754 -288.853949 
L 151.356185 -287.40163 
L 154.309292 -285.841207 
L 157.331077 -284.298644 
L 160.455877 -282.555421 
L 163.649354 -281.036125 
L 166.945846 -279.277924 
L 170.345354 -277.6207 
L 173.813538 -275.709026 
L 177.384738 -273.900457 
L 181.058954 -272.19488 
L 184.870523 -270.32987 
L 188.785108 -268.595704 
L 192.802708 -266.626804 
L 196.957662 -264.406668 
L 201.284308 -262.50738 
L 205.713969 -260.343048 
L 210.280985 -258.20762 
L 215.054031 -256.022043 
L 219.964431 -254.003468 
L 225.046523 -251.749683 
L 230.300308 -249.839508 
L 235.794462 -247.69066 
L 241.460308 -245.101784 
L 247.366523 -242.916023 
L 253.513108 -240.555435 
L 259.9344 -238.154215 
L 266.596062 -235.478104 
L 273.532431 -233.227147 
L 280.812185 -230.903554 
L 288.400985 -228.373799 
L 296.367508 -225.614804 
L 304.711754 -223.331853 
L 313.468062 -220.292275 
L 322.670769 -217.860169 
L 332.388554 -215.535185 
L 342.621415 -212.687183 
L 353.403692 -209.672749 
L 364.872738 -206.781389 
L 376.994215 -203.194194 
L 389.905477 -200.056932 
L 403.640862 -195.745873 
L 418.337723 -190.727252 
L 434.064738 -186.059907 
L 450.9936 -179.030019 
L 469.192985 -173.1047 
L 488.903262 -165.465611 
L 510.330462 -153.369495 
L 510.330462 -186.749186 
L 510.330462 -186.749186 
L 488.903262 -188.569294 
L 469.192985 -193.025037 
L 450.9936 -197.039704 
L 434.064738 -200.824855 
L 418.337723 -204.598497 
L 403.640862 -208.989068 
L 389.905477 -212.129247 
L 376.994215 -214.941365 
L 364.872738 -218.553003 
L 353.403692 -221.753792 
L 342.621415 -225.081676 
L 332.388554 -228.103218 
L 322.670769 -231.188681 
L 313.468062 -233.990539 
L 304.711754 -236.504367 
L 296.367508 -239.343596 
L 288.400985 -242.091563 
L 280.812185 -244.587865 
L 273.532431 -247.219254 
L 266.596062 -249.975766 
L 259.9344 -252.37467 
L 253.513108 -254.948931 
L 247.366523 -257.667033 
L 241.460308 -259.97995 
L 235.794462 -262.08974 
L 230.300308 -264.198224 
L 225.046523 -266.566969 
L 219.964431 -268.69294 
L 215.054031 -270.918287 
L 210.280985 -273.005839 
L 205.713969 -275.165415 
L 201.284308 -277.27169 
L 196.957662 -279.226108 
L 192.802708 -281.371945 
L 188.785108 -283.430976 
L 184.870523 -285.389678 
L 181.058954 -287.346623 
L 177.384738 -289.16067 
L 173.813538 -290.942809 
L 170.345354 -292.740751 
L 166.945846 -294.438845 
L 163.649354 -296.162279 
L 160.455877 -297.733672 
L 157.331077 -299.351818 
L 154.309292 -300.942165 
L 151.356185 -302.45912 
L 148.471754 -303.927165 
L 145.656 -305.454586 
L 142.908923 -306.822514 
L 140.230523 -308.28198 
L 137.6208 -309.652604 
L 135.079754 -311.000188 
L 132.573046 -312.312979 
L 130.135015 -313.625845 
L 127.765662 -314.862978 
L 125.430646 -316.092455 
L 123.164308 -317.303353 
L 120.932308 -318.44967 
L 118.734646 -319.554505 
L 116.605662 -320.694761 
L 114.511015 -321.872216 
L 112.485046 -322.986579 
L 110.459077 -324.063354 
L 108.501785 -325.128912 
L 106.578831 -326.16613 
L 104.690215 -327.139541 
L 102.835938 -328.108234 
L 101.016 -329.061399 
L 99.2304 -329.978032 
L 97.479138 -330.907785 
L 95.762215 -331.798458 
L 94.079631 -332.678748 
L 92.431385 -333.542167 
L 90.783138 -334.366068 
L 89.203569 -335.187948 
L 87.624 -335.986102 
L 86.078769 -336.748345 
L 84.567877 -337.504894 
L 83.091323 -338.256053 
L 81.614769 -338.960247 
L 80.172554 -339.680685 
L 78.764677 -340.381259 
L 77.3568 -341.069695 
L 75.983262 -341.734011 
L 74.644062 -342.409239 
L 73.304862 -343.051984 
L 72 -343.685347 
z
" id="m3e7ac1b712" style="stroke:#000000;stroke-opacity:0.5;stroke-width:0.3;"/>
    </defs>
    <g clip-path="url(#pe5f19b5164)">
     <use style="fill:#4c72b0;fill-opacity:0.5;stroke:#000000;stroke-opacity:0.5;stroke-width:0.3;" x="0.0" xlink:href="#m3e7ac1b712" y="396.0"/>
    </g>
   </g>
   <g id="line2d_52">
    <path clip-path="url(#pe5f19b5164)" d="M 72 55.239189 
L 73.304862 55.918034 
L 74.644062 56.608603 
L 75.983262 57.312488 
L 77.3568 58.030019 
L 78.764677 58.760335 
L 80.172554 59.502893 
L 81.614769 60.265408 
L 83.091323 61.036565 
L 84.567877 61.828156 
L 86.078769 62.630902 
L 87.624 63.451737 
L 89.203569 64.290405 
L 90.783138 65.140243 
L 92.431385 66.012822 
L 94.079631 66.906279 
L 95.762215 67.812822 
L 97.479138 68.741143 
L 99.2304 69.687469 
L 101.016 70.652714 
L 102.835938 71.643835 
L 104.690215 72.654183 
L 106.578831 73.685594 
L 108.501785 74.740057 
L 110.459077 75.820275 
L 112.485046 76.926637 
L 114.511015 78.057699 
L 116.605662 79.208962 
L 118.734646 80.391836 
L 120.932308 81.59904 
L 123.164308 82.830767 
L 125.430646 84.090395 
L 127.765662 85.380617 
L 130.135015 86.696271 
L 132.573046 88.043029 
L 135.079754 89.422699 
L 137.6208 90.824728 
L 140.230523 92.262559 
L 142.908923 93.728208 
L 145.656 95.217174 
L 148.471754 96.739194 
L 151.356185 98.28669 
L 154.309292 99.879489 
L 157.331077 101.492366 
L 160.455877 103.138574 
L 163.649354 104.81286 
L 166.945846 106.519403 
L 170.345354 108.251747 
L 173.813538 110.024336 
L 177.384738 111.828019 
L 181.058954 113.673141 
L 184.870523 115.553833 
L 188.785108 117.470917 
L 192.802708 119.403853 
L 196.957662 121.368034 
L 201.284308 123.376139 
L 205.713969 125.453732 
L 210.280985 127.553236 
L 215.054031 129.701773 
L 219.964431 131.855781 
L 225.046523 134.069359 
L 230.300308 136.311588 
L 235.794462 138.597383 
L 241.460308 140.94163 
L 247.366523 143.296593 
L 253.513108 145.729409 
L 259.9344 148.121862 
L 266.596062 150.537959 
L 273.532431 153.123573 
L 280.812185 155.678941 
L 288.400985 158.309437 
L 296.367508 160.948844 
L 304.711754 163.692277 
L 313.468062 166.458516 
L 322.670769 169.461328 
L 332.388554 172.289186 
L 342.621415 175.211708 
L 353.403692 178.336733 
L 364.872738 181.468424 
L 376.994215 184.713348 
L 389.905477 188.033003 
L 403.640862 191.744523 
L 418.337723 195.532686 
L 434.064738 199.883964 
L 450.9936 204.144413 
L 469.192985 208.456739 
L 488.903262 213.441085 
L 510.330462 218.520309 
" style="fill:none;stroke:#4c72b0;stroke-linecap:round;stroke-width:3.0;"/>
   </g>
   <g id="line2d_53">
    <path clip-path="url(#pe5f19b5164)" d="M 72 54.125474 
L 73.304862 54.944597 
L 74.644062 55.782375 
L 75.983262 56.617226 
L 77.3568 57.470453 
L 78.764677 58.341837 
L 80.172554 59.21002 
L 81.614769 60.096072 
L 83.091323 60.999766 
L 84.567877 61.899979 
L 86.078769 62.817538 
L 87.624 63.752209 
L 89.203569 64.703757 
L 90.783138 65.651383 
L 92.431385 66.636049 
L 94.079631 67.616481 
L 95.762215 68.612991 
L 97.479138 69.62533 
L 99.2304 70.653245 
L 101.016 71.696483 
L 102.835938 72.754784 
L 104.690215 73.827887 
L 106.578831 74.915529 
L 108.501785 76.017443 
L 110.459077 77.13336 
L 112.485046 78.282435 
L 114.511015 79.425441 
L 116.605662 80.600845 
L 118.734646 81.788942 
L 120.932308 83.008448 
L 123.164308 84.23986 
L 125.430646 85.482887 
L 127.765662 86.755902 
L 130.135015 88.03972 
L 132.573046 89.352477 
L 135.079754 90.693518 
L 137.6208 92.04399 
L 140.230523 93.421656 
L 142.908923 94.825837 
L 145.656 96.255848 
L 148.471754 97.71099 
L 151.356185 99.19056 
L 154.309292 100.693844 
L 157.331077 102.220123 
L 160.455877 103.785806 
L 163.649354 105.372741 
L 166.945846 106.997032 
L 170.345354 108.657486 
L 173.813538 110.336348 
L 177.384738 112.049245 
L 181.058954 113.794943 
L 184.870523 115.58827 
L 188.785108 117.411561 
L 192.802708 119.263534 
L 196.957662 121.158473 
L 201.284308 123.109963 
L 205.713969 125.085183 
L 210.280985 127.097845 
L 215.054031 129.175783 
L 219.964431 131.286634 
L 225.046523 133.442946 
L 230.300308 135.642196 
L 235.794462 137.909985 
L 241.460308 140.214781 
L 247.366523 142.581292 
L 253.513108 145.005625 
L 259.9344 147.497048 
L 266.596062 150.037915 
L 273.532431 152.636958 
L 280.812185 155.314456 
L 288.400985 158.051908 
L 296.367508 160.867784 
L 304.711754 163.754967 
L 313.468062 166.717768 
L 322.670769 169.759383 
L 332.388554 172.892794 
L 342.621415 176.107374 
L 353.403692 179.402791 
L 364.872738 182.807648 
L 376.994215 186.29695 
L 389.905477 189.893989 
L 403.640862 193.589673 
L 418.337723 197.399835 
L 434.064738 201.318154 
L 450.9936 205.359723 
L 469.192985 209.509694 
L 488.903262 213.786997 
L 510.330462 218.19357 
" style="fill:none;stroke:#c44e52;stroke-linecap:round;stroke-width:3.0;"/>
   </g>
   <g id="patch_3">
    <path d="M 72 39.6 
L 518.4 39.6 
" style="fill:none;"/>
   </g>
   <g id="patch_4">
    <path d="M 72 265.261765 
L 72 39.6 
" style="fill:none;"/>
   </g>
   <g id="patch_5">
    <path d="M 72 265.261765 
L 518.4 265.261765 
" style="fill:none;"/>
   </g>
   <g id="patch_6">
    <path d="M 518.4 265.261765 
L 518.4 39.6 
" style="fill:none;"/>
   </g>
   <g id="legend_1">
    <g id="line2d_54">
     <path d="M 337.362812 56.055156 
L 363.362812 56.055156 
" style="fill:none;stroke:#4c72b0;stroke-linecap:round;stroke-width:3.0;"/>
    </g>
    <g id="line2d_55"/>
    <g id="text_12">
     <!-- Meraxes fiducial model -->
     <defs>
      <path d="M 40.4375 19 
L 49.078125 17.875 
Q 47.65625 8.9375 41.8125 3.875 
Q 35.984375 -1.171875 27.484375 -1.171875 
Q 16.84375 -1.171875 10.375 5.78125 
Q 3.90625 12.75 3.90625 25.734375 
Q 3.90625 34.125 6.6875 40.421875 
Q 9.46875 46.734375 15.15625 49.875 
Q 20.84375 53.03125 27.546875 53.03125 
Q 35.984375 53.03125 41.359375 48.75 
Q 46.734375 44.484375 48.25 36.625 
L 39.703125 35.296875 
Q 38.484375 40.53125 35.375 43.15625 
Q 32.28125 45.796875 27.875 45.796875 
Q 21.234375 45.796875 17.078125 41.03125 
Q 12.9375 36.28125 12.9375 25.984375 
Q 12.9375 15.53125 16.9375 10.796875 
Q 20.953125 6.0625 27.390625 6.0625 
Q 32.5625 6.0625 36.03125 9.234375 
Q 39.5 12.40625 40.4375 19 
" id="ArialMT-63"/>
      <path d="M 3.328125 25.921875 
Q 3.328125 40.328125 11.328125 47.265625 
Q 18.015625 53.03125 27.640625 53.03125 
Q 38.328125 53.03125 45.109375 46.015625 
Q 51.90625 39.015625 51.90625 26.65625 
Q 51.90625 16.65625 48.90625 10.90625 
Q 45.90625 5.171875 40.15625 2 
Q 34.421875 -1.171875 27.640625 -1.171875 
Q 16.75 -1.171875 10.03125 5.8125 
Q 3.328125 12.796875 3.328125 25.921875 
M 12.359375 25.921875 
Q 12.359375 15.96875 16.703125 11.015625 
Q 21.046875 6.0625 27.640625 6.0625 
Q 34.1875 6.0625 38.53125 11.03125 
Q 42.875 16.015625 42.875 26.21875 
Q 42.875 35.84375 38.5 40.796875 
Q 34.125 45.75 27.640625 45.75 
Q 21.046875 45.75 16.703125 40.8125 
Q 12.359375 35.890625 12.359375 25.921875 
" id="ArialMT-6f"/>
      <path d="M 40.578125 0 
L 40.578125 7.625 
Q 34.515625 -1.171875 24.125 -1.171875 
Q 19.53125 -1.171875 15.546875 0.578125 
Q 11.578125 2.34375 9.640625 5 
Q 7.71875 7.671875 6.9375 11.53125 
Q 6.390625 14.109375 6.390625 19.734375 
L 6.390625 51.859375 
L 15.1875 51.859375 
L 15.1875 23.09375 
Q 15.1875 16.21875 15.71875 13.8125 
Q 16.546875 10.359375 19.234375 8.375 
Q 21.921875 6.390625 25.875 6.390625 
Q 29.828125 6.390625 33.296875 8.421875 
Q 36.765625 10.453125 38.203125 13.9375 
Q 39.65625 17.4375 39.65625 24.078125 
L 39.65625 51.859375 
L 48.4375 51.859375 
L 48.4375 0 
z
" id="ArialMT-75"/>
      <path d="M 42.09375 16.703125 
L 51.171875 15.578125 
Q 49.03125 7.625 43.21875 3.21875 
Q 37.40625 -1.171875 28.375 -1.171875 
Q 17 -1.171875 10.328125 5.828125 
Q 3.65625 12.84375 3.65625 25.484375 
Q 3.65625 38.578125 10.390625 45.796875 
Q 17.140625 53.03125 27.875 53.03125 
Q 38.28125 53.03125 44.875 45.953125 
Q 51.46875 38.875 51.46875 26.03125 
Q 51.46875 25.25 51.421875 23.6875 
L 12.75 23.6875 
Q 13.234375 15.140625 17.578125 10.59375 
Q 21.921875 6.0625 28.421875 6.0625 
Q 33.25 6.0625 36.671875 8.59375 
Q 40.09375 11.140625 42.09375 16.703125 
M 13.234375 30.90625 
L 42.1875 30.90625 
Q 41.609375 37.453125 38.875 40.71875 
Q 34.671875 45.796875 27.984375 45.796875 
Q 21.921875 45.796875 17.796875 41.75 
Q 13.671875 37.703125 13.234375 30.90625 
" id="ArialMT-65"/>
      <path d="M 6.5 0 
L 6.5 51.859375 
L 14.40625 51.859375 
L 14.40625 44 
Q 17.4375 49.515625 20 51.265625 
Q 22.5625 53.03125 25.640625 53.03125 
Q 30.078125 53.03125 34.671875 50.203125 
L 31.640625 42.046875 
Q 28.421875 43.953125 25.203125 43.953125 
Q 22.3125 43.953125 20.015625 42.21875 
Q 17.71875 40.484375 16.75 37.40625 
Q 15.28125 32.71875 15.28125 27.15625 
L 15.28125 0 
z
" id="ArialMT-72"/>
      <path id="ArialMT-20"/>
      <path d="M 6.640625 61.46875 
L 6.640625 71.578125 
L 15.4375 71.578125 
L 15.4375 61.46875 
z
M 6.640625 0 
L 6.640625 51.859375 
L 15.4375 51.859375 
L 15.4375 0 
z
" id="ArialMT-69"/>
      <path d="M 6.59375 0 
L 6.59375 51.859375 
L 14.453125 51.859375 
L 14.453125 44.578125 
Q 16.890625 48.390625 20.9375 50.703125 
Q 25 53.03125 30.171875 53.03125 
Q 35.9375 53.03125 39.625 50.640625 
Q 43.3125 48.25 44.828125 43.953125 
Q 50.984375 53.03125 60.84375 53.03125 
Q 68.5625 53.03125 72.703125 48.75 
Q 76.859375 44.484375 76.859375 35.59375 
L 76.859375 0 
L 68.109375 0 
L 68.109375 32.671875 
Q 68.109375 37.9375 67.25 40.25 
Q 66.40625 42.578125 64.15625 43.984375 
Q 61.921875 45.40625 58.890625 45.40625 
Q 53.421875 45.40625 49.796875 41.765625 
Q 46.1875 38.140625 46.1875 30.125 
L 46.1875 0 
L 37.40625 0 
L 37.40625 33.6875 
Q 37.40625 39.546875 35.25 42.46875 
Q 33.109375 45.40625 28.21875 45.40625 
Q 24.515625 45.40625 21.359375 43.453125 
Q 18.21875 41.5 16.796875 37.734375 
Q 15.375 33.984375 15.375 26.90625 
L 15.375 0 
z
" id="ArialMT-6d"/>
      <path d="M 40.234375 0 
L 40.234375 6.546875 
Q 35.296875 -1.171875 25.734375 -1.171875 
Q 19.53125 -1.171875 14.328125 2.25 
Q 9.125 5.671875 6.265625 11.796875 
Q 3.421875 17.921875 3.421875 25.875 
Q 3.421875 33.640625 6 39.96875 
Q 8.59375 46.296875 13.765625 49.65625 
Q 18.953125 53.03125 25.34375 53.03125 
Q 30.03125 53.03125 33.6875 51.046875 
Q 37.359375 49.078125 39.65625 45.90625 
L 39.65625 71.578125 
L 48.390625 71.578125 
L 48.390625 0 
z
M 12.453125 25.875 
Q 12.453125 15.921875 16.640625 10.984375 
Q 20.84375 6.0625 26.5625 6.0625 
Q 32.328125 6.0625 36.34375 10.765625 
Q 40.375 15.484375 40.375 25.140625 
Q 40.375 35.796875 36.265625 40.765625 
Q 32.171875 45.75 26.171875 45.75 
Q 20.3125 45.75 16.375 40.96875 
Q 12.453125 36.1875 12.453125 25.875 
" id="ArialMT-64"/>
      <path d="M 0.734375 0 
L 19.671875 26.953125 
L 2.15625 51.859375 
L 13.140625 51.859375 
L 21.09375 39.703125 
Q 23.34375 36.234375 24.703125 33.890625 
Q 26.859375 37.109375 28.65625 39.59375 
L 37.40625 51.859375 
L 47.90625 51.859375 
L 29.984375 27.4375 
L 49.265625 0 
L 38.484375 0 
L 27.828125 16.109375 
L 25 20.453125 
L 11.375 0 
z
" id="ArialMT-78"/>
      <path d="M 40.4375 6.390625 
Q 35.546875 2.25 31.03125 0.53125 
Q 26.515625 -1.171875 21.34375 -1.171875 
Q 12.796875 -1.171875 8.203125 3 
Q 3.609375 7.171875 3.609375 13.671875 
Q 3.609375 17.484375 5.34375 20.625 
Q 7.078125 23.78125 9.890625 25.6875 
Q 12.703125 27.59375 16.21875 28.5625 
Q 18.796875 29.25 24.03125 29.890625 
Q 34.671875 31.15625 39.703125 32.90625 
Q 39.75 34.71875 39.75 35.203125 
Q 39.75 40.578125 37.25 42.78125 
Q 33.890625 45.75 27.25 45.75 
Q 21.046875 45.75 18.09375 43.578125 
Q 15.140625 41.40625 13.71875 35.890625 
L 5.125 37.0625 
Q 6.296875 42.578125 8.984375 45.96875 
Q 11.671875 49.359375 16.75 51.1875 
Q 21.828125 53.03125 28.515625 53.03125 
Q 35.15625 53.03125 39.296875 51.46875 
Q 43.453125 49.90625 45.40625 47.53125 
Q 47.359375 45.171875 48.140625 41.546875 
Q 48.578125 39.3125 48.578125 33.453125 
L 48.578125 21.734375 
Q 48.578125 9.46875 49.140625 6.21875 
Q 49.703125 2.984375 51.375 0 
L 42.1875 0 
Q 40.828125 2.734375 40.4375 6.390625 
M 39.703125 26.03125 
Q 34.90625 24.078125 25.34375 22.703125 
Q 19.921875 21.921875 17.671875 20.9375 
Q 15.4375 19.96875 14.203125 18.09375 
Q 12.984375 16.21875 12.984375 13.921875 
Q 12.984375 10.40625 15.640625 8.0625 
Q 18.3125 5.71875 23.4375 5.71875 
Q 28.515625 5.71875 32.46875 7.9375 
Q 36.421875 10.15625 38.28125 14.015625 
Q 39.703125 17 39.703125 22.796875 
z
" id="ArialMT-61"/>
      <path d="M 8.6875 0 
L 8.6875 45.015625 
L 0.921875 45.015625 
L 0.921875 51.859375 
L 8.6875 51.859375 
L 8.6875 57.375 
Q 8.6875 62.59375 9.625 65.140625 
Q 10.890625 68.5625 14.078125 70.671875 
Q 17.28125 72.796875 23.046875 72.796875 
Q 26.765625 72.796875 31.25 71.921875 
L 29.9375 64.265625 
Q 27.203125 64.75 24.75 64.75 
Q 20.75 64.75 19.09375 63.03125 
Q 17.4375 61.328125 17.4375 56.640625 
L 17.4375 51.859375 
L 27.546875 51.859375 
L 27.546875 45.015625 
L 17.4375 45.015625 
L 17.4375 0 
z
" id="ArialMT-66"/>
      <path d="M 7.421875 0 
L 7.421875 71.578125 
L 21.6875 71.578125 
L 38.625 20.90625 
Q 40.96875 13.8125 42.046875 10.296875 
Q 43.265625 14.203125 45.84375 21.78125 
L 62.984375 71.578125 
L 75.734375 71.578125 
L 75.734375 0 
L 66.609375 0 
L 66.609375 59.90625 
L 45.796875 0 
L 37.25 0 
L 16.546875 60.9375 
L 16.546875 0 
z
" id="ArialMT-4d"/>
      <path d="M 3.078125 15.484375 
L 11.765625 16.84375 
Q 12.5 11.625 15.84375 8.84375 
Q 19.1875 6.0625 25.203125 6.0625 
Q 31.25 6.0625 34.171875 8.515625 
Q 37.109375 10.984375 37.109375 14.3125 
Q 37.109375 17.28125 34.515625 19 
Q 32.71875 20.171875 25.53125 21.96875 
Q 15.875 24.421875 12.140625 26.203125 
Q 8.40625 27.984375 6.46875 31.125 
Q 4.546875 34.28125 4.546875 38.09375 
Q 4.546875 41.546875 6.125 44.5 
Q 7.71875 47.46875 10.453125 49.421875 
Q 12.5 50.921875 16.03125 51.96875 
Q 19.578125 53.03125 23.640625 53.03125 
Q 29.734375 53.03125 34.34375 51.265625 
Q 38.96875 49.515625 41.15625 46.5 
Q 43.359375 43.5 44.1875 38.484375 
L 35.59375 37.3125 
Q 35.015625 41.3125 32.203125 43.546875 
Q 29.390625 45.796875 24.265625 45.796875 
Q 18.21875 45.796875 15.625 43.796875 
Q 13.03125 41.796875 13.03125 39.109375 
Q 13.03125 37.40625 14.109375 36.03125 
Q 15.1875 34.625 17.484375 33.6875 
Q 18.796875 33.203125 25.25 31.453125 
Q 34.578125 28.953125 38.25 27.359375 
Q 41.9375 25.78125 44.03125 22.75 
Q 46.140625 19.734375 46.140625 15.234375 
Q 46.140625 10.84375 43.578125 6.953125 
Q 41.015625 3.078125 36.171875 0.953125 
Q 31.34375 -1.171875 25.25 -1.171875 
Q 15.140625 -1.171875 9.84375 3.03125 
Q 4.546875 7.234375 3.078125 15.484375 
" id="ArialMT-73"/>
      <path d="M 6.390625 0 
L 6.390625 71.578125 
L 15.1875 71.578125 
L 15.1875 0 
z
" id="ArialMT-6c"/>
     </defs>
     <g style="fill:#262626;" transform="translate(373.7628125 60.60515625)scale(0.13 -0.13)">
      <use xlink:href="#ArialMT-4d"/>
      <use x="83.30078125" xlink:href="#ArialMT-65"/>
      <use x="138.916015625" xlink:href="#ArialMT-72"/>
      <use x="172.216796875" xlink:href="#ArialMT-61"/>
      <use x="227.83203125" xlink:href="#ArialMT-78"/>
      <use x="277.83203125" xlink:href="#ArialMT-65"/>
      <use x="333.447265625" xlink:href="#ArialMT-73"/>
      <use x="383.447265625" xlink:href="#ArialMT-20"/>
      <use x="411.23046875" xlink:href="#ArialMT-66"/>
      <use x="439.013671875" xlink:href="#ArialMT-69"/>
      <use x="461.23046875" xlink:href="#ArialMT-64"/>
      <use x="516.845703125" xlink:href="#ArialMT-75"/>
      <use x="572.4609375" xlink:href="#ArialMT-63"/>
      <use x="622.4609375" xlink:href="#ArialMT-69"/>
      <use x="644.677734375" xlink:href="#ArialMT-61"/>
      <use x="700.29296875" xlink:href="#ArialMT-6c"/>
      <use x="722.509765625" xlink:href="#ArialMT-20"/>
      <use x="750.29296875" xlink:href="#ArialMT-6d"/>
      <use x="833.59375" xlink:href="#ArialMT-6f"/>
      <use x="889.208984375" xlink:href="#ArialMT-64"/>
      <use x="944.82421875" xlink:href="#ArialMT-65"/>
      <use x="1000.439453125" xlink:href="#ArialMT-6c"/>
     </g>
    </g>
    <g id="line2d_56">
     <path d="M 337.362812 74.444062 
L 363.362812 74.444062 
" style="fill:none;stroke:#c44e52;stroke-linecap:round;stroke-width:3.0;"/>
    </g>
    <g id="line2d_57"/>
    <g id="text_13">
     <!-- fit -->
     <defs>
      <path d="M 25.78125 7.859375 
L 27.046875 0.09375 
Q 23.34375 -0.6875 20.40625 -0.6875 
Q 15.625 -0.6875 12.984375 0.828125 
Q 10.359375 2.34375 9.28125 4.8125 
Q 8.203125 7.28125 8.203125 15.1875 
L 8.203125 45.015625 
L 1.765625 45.015625 
L 1.765625 51.859375 
L 8.203125 51.859375 
L 8.203125 64.703125 
L 16.9375 69.96875 
L 16.9375 51.859375 
L 25.78125 51.859375 
L 25.78125 45.015625 
L 16.9375 45.015625 
L 16.9375 14.703125 
Q 16.9375 10.9375 17.40625 9.859375 
Q 17.875 8.796875 18.921875 8.15625 
Q 19.96875 7.515625 21.921875 7.515625 
Q 23.390625 7.515625 25.78125 7.859375 
" id="ArialMT-74"/>
     </defs>
     <g style="fill:#262626;" transform="translate(373.7628125 78.9940625)scale(0.13 -0.13)">
      <use xlink:href="#ArialMT-66"/>
      <use x="27.783203125" xlink:href="#ArialMT-69"/>
      <use x="50.0" xlink:href="#ArialMT-74"/>
     </g>
    </g>
   </g>
  </g>
  <g id="axes_2">
   <g id="patch_7">
    <path d="M 72 346.5 
L 518.4 346.5 
L 518.4 271.279412 
L 72 271.279412 
z
" style="fill:#eaeaf2;"/>
   </g>
   <g id="matplotlib.axis_3">
    <g id="xtick_8">
     <g id="line2d_58">
      <path clip-path="url(#p67f88bca3a)" d="M 106.338462 346.5 
L 106.338462 271.279412 
" style="fill:none;stroke:#ffffff;stroke-linecap:round;"/>
     </g>
     <g id="line2d_59">
      <g>
       <use style="fill:#262626;stroke:#262626;" x="106.338461538" xlink:href="#m89a49eee0b" y="346.5"/>
      </g>
     </g>
     <g id="line2d_60">
      <g>
       <use style="fill:#262626;stroke:#262626;" x="106.338461538" xlink:href="#m89a49eee0b" y="271.279411765"/>
      </g>
     </g>
     <g id="text_14">
      <!-- 6 -->
      <defs>
       <path d="M 49.75 54.046875 
L 41.015625 53.375 
Q 39.84375 58.546875 37.703125 60.890625 
Q 34.125 64.65625 28.90625 64.65625 
Q 24.703125 64.65625 21.53125 62.3125 
Q 17.390625 59.28125 14.984375 53.46875 
Q 12.59375 47.65625 12.5 36.921875 
Q 15.671875 41.75 20.265625 44.09375 
Q 24.859375 46.4375 29.890625 46.4375 
Q 38.671875 46.4375 44.84375 39.96875 
Q 51.03125 33.5 51.03125 23.25 
Q 51.03125 16.5 48.125 10.71875 
Q 45.21875 4.9375 40.140625 1.859375 
Q 35.0625 -1.21875 28.609375 -1.21875 
Q 17.625 -1.21875 10.6875 6.859375 
Q 3.765625 14.9375 3.765625 33.5 
Q 3.765625 54.25 11.421875 63.671875 
Q 18.109375 71.875 29.4375 71.875 
Q 37.890625 71.875 43.28125 67.140625 
Q 48.6875 62.40625 49.75 54.046875 
M 13.875 23.1875 
Q 13.875 18.65625 15.796875 14.5 
Q 17.71875 10.359375 21.1875 8.171875 
Q 24.65625 6 28.46875 6 
Q 34.03125 6 38.03125 10.484375 
Q 42.046875 14.984375 42.046875 22.703125 
Q 42.046875 30.125 38.078125 34.390625 
Q 34.125 38.671875 28.125 38.671875 
Q 22.171875 38.671875 18.015625 34.390625 
Q 13.875 30.125 13.875 23.1875 
" id="ArialMT-36"/>
      </defs>
      <g style="fill:#262626;" transform="translate(102.723852163 362.80515625)scale(0.13 -0.13)">
       <use xlink:href="#ArialMT-36"/>
      </g>
     </g>
    </g>
    <g id="xtick_9">
     <g id="line2d_61">
      <path clip-path="url(#p67f88bca3a)" d="M 175.015385 346.5 
L 175.015385 271.279412 
" style="fill:none;stroke:#ffffff;stroke-linecap:round;"/>
     </g>
     <g id="line2d_62">
      <g>
       <use style="fill:#262626;stroke:#262626;" x="175.015384615" xlink:href="#m89a49eee0b" y="346.5"/>
      </g>
     </g>
     <g id="line2d_63">
      <g>
       <use style="fill:#262626;stroke:#262626;" x="175.015384615" xlink:href="#m89a49eee0b" y="271.279411765"/>
      </g>
     </g>
     <g id="text_15">
      <!-- 8 -->
      <defs>
       <path d="M 17.671875 38.8125 
Q 12.203125 40.828125 9.5625 44.53125 
Q 6.9375 48.25 6.9375 53.421875 
Q 6.9375 61.234375 12.546875 66.546875 
Q 18.171875 71.875 27.484375 71.875 
Q 36.859375 71.875 42.578125 66.421875 
Q 48.296875 60.984375 48.296875 53.171875 
Q 48.296875 48.1875 45.671875 44.5 
Q 43.0625 40.828125 37.75 38.8125 
Q 44.34375 36.671875 47.78125 31.875 
Q 51.21875 27.09375 51.21875 20.453125 
Q 51.21875 11.28125 44.71875 5.03125 
Q 38.234375 -1.21875 27.640625 -1.21875 
Q 17.046875 -1.21875 10.546875 5.046875 
Q 4.046875 11.328125 4.046875 20.703125 
Q 4.046875 27.6875 7.59375 32.390625 
Q 11.140625 37.109375 17.671875 38.8125 
M 15.921875 53.71875 
Q 15.921875 48.640625 19.1875 45.40625 
Q 22.46875 42.1875 27.6875 42.1875 
Q 32.765625 42.1875 36.015625 45.375 
Q 39.265625 48.578125 39.265625 53.21875 
Q 39.265625 58.0625 35.90625 61.359375 
Q 32.5625 64.65625 27.59375 64.65625 
Q 22.5625 64.65625 19.234375 61.421875 
Q 15.921875 58.203125 15.921875 53.71875 
M 13.09375 20.65625 
Q 13.09375 16.890625 14.875 13.375 
Q 16.65625 9.859375 20.171875 7.921875 
Q 23.6875 6 27.734375 6 
Q 34.03125 6 38.125 10.046875 
Q 42.234375 14.109375 42.234375 20.359375 
Q 42.234375 26.703125 38.015625 30.859375 
Q 33.796875 35.015625 27.4375 35.015625 
Q 21.234375 35.015625 17.15625 30.90625 
Q 13.09375 26.8125 13.09375 20.65625 
" id="ArialMT-38"/>
      </defs>
      <g style="fill:#262626;" transform="translate(171.40077524 362.80515625)scale(0.13 -0.13)">
       <use xlink:href="#ArialMT-38"/>
      </g>
     </g>
    </g>
    <g id="xtick_10">
     <g id="line2d_64">
      <path clip-path="url(#p67f88bca3a)" d="M 243.692308 346.5 
L 243.692308 271.279412 
" style="fill:none;stroke:#ffffff;stroke-linecap:round;"/>
     </g>
     <g id="line2d_65">
      <g>
       <use style="fill:#262626;stroke:#262626;" x="243.692307692" xlink:href="#m89a49eee0b" y="346.5"/>
      </g>
     </g>
     <g id="line2d_66">
      <g>
       <use style="fill:#262626;stroke:#262626;" x="243.692307692" xlink:href="#m89a49eee0b" y="271.279411765"/>
      </g>
     </g>
     <g id="text_16">
      <!-- 10 -->
      <g style="fill:#262626;" transform="translate(236.463088942 362.80515625)scale(0.13 -0.13)">
       <use xlink:href="#ArialMT-31"/>
       <use x="55.615234375" xlink:href="#ArialMT-30"/>
      </g>
     </g>
    </g>
    <g id="xtick_11">
     <g id="line2d_67">
      <path clip-path="url(#p67f88bca3a)" d="M 312.369231 346.5 
L 312.369231 271.279412 
" style="fill:none;stroke:#ffffff;stroke-linecap:round;"/>
     </g>
     <g id="line2d_68">
      <g>
       <use style="fill:#262626;stroke:#262626;" x="312.369230769" xlink:href="#m89a49eee0b" y="346.5"/>
      </g>
     </g>
     <g id="line2d_69">
      <g>
       <use style="fill:#262626;stroke:#262626;" x="312.369230769" xlink:href="#m89a49eee0b" y="271.279411765"/>
      </g>
     </g>
     <g id="text_17">
      <!-- 12 -->
      <g style="fill:#262626;" transform="translate(305.140012019 362.80515625)scale(0.13 -0.13)">
       <use xlink:href="#ArialMT-31"/>
       <use x="55.615234375" xlink:href="#ArialMT-32"/>
      </g>
     </g>
    </g>
    <g id="xtick_12">
     <g id="line2d_70">
      <path clip-path="url(#p67f88bca3a)" d="M 381.046154 346.5 
L 381.046154 271.279412 
" style="fill:none;stroke:#ffffff;stroke-linecap:round;"/>
     </g>
     <g id="line2d_71">
      <g>
       <use style="fill:#262626;stroke:#262626;" x="381.046153846" xlink:href="#m89a49eee0b" y="346.5"/>
      </g>
     </g>
     <g id="line2d_72">
      <g>
       <use style="fill:#262626;stroke:#262626;" x="381.046153846" xlink:href="#m89a49eee0b" y="271.279411765"/>
      </g>
     </g>
     <g id="text_18">
      <!-- 14 -->
      <g style="fill:#262626;" transform="translate(373.816935096 362.80515625)scale(0.13 -0.13)">
       <use xlink:href="#ArialMT-31"/>
       <use x="55.615234375" xlink:href="#ArialMT-34"/>
      </g>
     </g>
    </g>
    <g id="xtick_13">
     <g id="line2d_73">
      <path clip-path="url(#p67f88bca3a)" d="M 449.723077 346.5 
L 449.723077 271.279412 
" style="fill:none;stroke:#ffffff;stroke-linecap:round;"/>
     </g>
     <g id="line2d_74">
      <g>
       <use style="fill:#262626;stroke:#262626;" x="449.723076923" xlink:href="#m89a49eee0b" y="346.5"/>
      </g>
     </g>
     <g id="line2d_75">
      <g>
       <use style="fill:#262626;stroke:#262626;" x="449.723076923" xlink:href="#m89a49eee0b" y="271.279411765"/>
      </g>
     </g>
     <g id="text_19">
      <!-- 16 -->
      <g style="fill:#262626;" transform="translate(442.493858173 362.80515625)scale(0.13 -0.13)">
       <use xlink:href="#ArialMT-31"/>
       <use x="55.615234375" xlink:href="#ArialMT-36"/>
      </g>
     </g>
    </g>
    <g id="xtick_14">
     <g id="line2d_76">
      <path clip-path="url(#p67f88bca3a)" d="M 518.4 346.5 
L 518.4 271.279412 
" style="fill:none;stroke:#ffffff;stroke-linecap:round;"/>
     </g>
     <g id="line2d_77">
      <g>
       <use style="fill:#262626;stroke:#262626;" x="518.4" xlink:href="#m89a49eee0b" y="346.5"/>
      </g>
     </g>
     <g id="line2d_78">
      <g>
       <use style="fill:#262626;stroke:#262626;" x="518.4" xlink:href="#m89a49eee0b" y="271.279411765"/>
      </g>
     </g>
     <g id="text_20">
      <!-- 18 -->
      <g style="fill:#262626;" transform="translate(511.17078125 362.80515625)scale(0.13 -0.13)">
       <use xlink:href="#ArialMT-31"/>
       <use x="55.615234375" xlink:href="#ArialMT-38"/>
      </g>
     </g>
    </g>
    <g id="text_21">
     <!-- z -->
     <defs>
      <path d="M 1.953125 0 
L 1.953125 7.125 
L 34.96875 45.015625 
Q 29.34375 44.734375 25.046875 44.734375 
L 3.90625 44.734375 
L 3.90625 51.859375 
L 46.296875 51.859375 
L 46.296875 46.046875 
L 18.21875 13.140625 
L 12.796875 7.125 
Q 18.703125 7.5625 23.875 7.5625 
L 47.859375 7.5625 
L 47.859375 0 
z
" id="ArialMT-7a"/>
     </defs>
     <g style="fill:#262626;" transform="translate(291.625 380.624578125)scale(0.14300000000000002 -0.14300000000000002)">
      <use xlink:href="#ArialMT-7a"/>
     </g>
    </g>
   </g>
   <g id="matplotlib.axis_4">
    <g id="ytick_11">
     <g id="line2d_79">
      <path clip-path="url(#p67f88bca3a)" d="M 72 346.5 
L 518.4 346.5 
" style="fill:none;stroke:#ffffff;stroke-linecap:round;"/>
     </g>
     <g id="line2d_80">
      <g>
       <use style="fill:#262626;stroke:#262626;" x="72.0" xlink:href="#m89a49eee0b" y="346.5"/>
      </g>
     </g>
     <g id="line2d_81">
      <g>
       <use style="fill:#262626;stroke:#262626;" x="518.4" xlink:href="#m89a49eee0b" y="346.5"/>
      </g>
     </g>
     <g id="text_22">
      <!-- −0.03 -->
      <g style="fill:#262626;" transform="translate(32.10796875 349.860703125)scale(0.13 -0.13)">
       <use xlink:href="#ArialMT-2212"/>
       <use x="58.3984375" xlink:href="#ArialMT-30"/>
       <use x="114.013671875" xlink:href="#ArialMT-2e"/>
       <use x="141.796875" xlink:href="#ArialMT-30"/>
       <use x="197.412109375" xlink:href="#ArialMT-33"/>
      </g>
     </g>
    </g>
    <g id="ytick_12">
     <g id="line2d_82">
      <path clip-path="url(#p67f88bca3a)" d="M 72 333.963235 
L 518.4 333.963235 
" style="fill:none;stroke:#ffffff;stroke-linecap:round;"/>
     </g>
     <g id="line2d_83">
      <g>
       <use style="fill:#262626;stroke:#262626;" x="72.0" xlink:href="#m89a49eee0b" y="333.963235294"/>
      </g>
     </g>
     <g id="line2d_84">
      <g>
       <use style="fill:#262626;stroke:#262626;" x="518.4" xlink:href="#m89a49eee0b" y="333.963235294"/>
      </g>
     </g>
     <g id="text_23">
      <!-- −0.02 -->
      <g style="fill:#262626;" transform="translate(32.10796875 337.323938419)scale(0.13 -0.13)">
       <use xlink:href="#ArialMT-2212"/>
       <use x="58.3984375" xlink:href="#ArialMT-30"/>
       <use x="114.013671875" xlink:href="#ArialMT-2e"/>
       <use x="141.796875" xlink:href="#ArialMT-30"/>
       <use x="197.412109375" xlink:href="#ArialMT-32"/>
      </g>
     </g>
    </g>
    <g id="ytick_13">
     <g id="line2d_85">
      <path clip-path="url(#p67f88bca3a)" d="M 72 321.426471 
L 518.4 321.426471 
" style="fill:none;stroke:#ffffff;stroke-linecap:round;"/>
     </g>
     <g id="line2d_86">
      <g>
       <use style="fill:#262626;stroke:#262626;" x="72.0" xlink:href="#m89a49eee0b" y="321.426470588"/>
      </g>
     </g>
     <g id="line2d_87">
      <g>
       <use style="fill:#262626;stroke:#262626;" x="518.4" xlink:href="#m89a49eee0b" y="321.426470588"/>
      </g>
     </g>
     <g id="text_24">
      <!-- −0.01 -->
      <g style="fill:#262626;" transform="translate(32.10796875 324.787173713)scale(0.13 -0.13)">
       <use xlink:href="#ArialMT-2212"/>
       <use x="58.3984375" xlink:href="#ArialMT-30"/>
       <use x="114.013671875" xlink:href="#ArialMT-2e"/>
       <use x="141.796875" xlink:href="#ArialMT-30"/>
       <use x="197.412109375" xlink:href="#ArialMT-31"/>
      </g>
     </g>
    </g>
    <g id="ytick_14">
     <g id="line2d_88">
      <path clip-path="url(#p67f88bca3a)" d="M 72 308.889706 
L 518.4 308.889706 
" style="fill:none;stroke:#ffffff;stroke-linecap:round;"/>
     </g>
     <g id="line2d_89">
      <g>
       <use style="fill:#262626;stroke:#262626;" x="72.0" xlink:href="#m89a49eee0b" y="308.889705882"/>
      </g>
     </g>
     <g id="line2d_90">
      <g>
       <use style="fill:#262626;stroke:#262626;" x="518.4" xlink:href="#m89a49eee0b" y="308.889705882"/>
      </g>
     </g>
     <g id="text_25">
      <!-- 0.00 -->
      <g style="fill:#262626;" transform="translate(39.70078125 312.250409007)scale(0.13 -0.13)">
       <use xlink:href="#ArialMT-30"/>
       <use x="55.615234375" xlink:href="#ArialMT-2e"/>
       <use x="83.3984375" xlink:href="#ArialMT-30"/>
       <use x="139.013671875" xlink:href="#ArialMT-30"/>
      </g>
     </g>
    </g>
    <g id="ytick_15">
     <g id="line2d_91">
      <path clip-path="url(#p67f88bca3a)" d="M 72 296.352941 
L 518.4 296.352941 
" style="fill:none;stroke:#ffffff;stroke-linecap:round;"/>
     </g>
     <g id="line2d_92">
      <g>
       <use style="fill:#262626;stroke:#262626;" x="72.0" xlink:href="#m89a49eee0b" y="296.352941176"/>
      </g>
     </g>
     <g id="line2d_93">
      <g>
       <use style="fill:#262626;stroke:#262626;" x="518.4" xlink:href="#m89a49eee0b" y="296.352941176"/>
      </g>
     </g>
     <g id="text_26">
      <!-- 0.01 -->
      <g style="fill:#262626;" transform="translate(39.70078125 299.713644301)scale(0.13 -0.13)">
       <use xlink:href="#ArialMT-30"/>
       <use x="55.615234375" xlink:href="#ArialMT-2e"/>
       <use x="83.3984375" xlink:href="#ArialMT-30"/>
       <use x="139.013671875" xlink:href="#ArialMT-31"/>
      </g>
     </g>
    </g>
    <g id="ytick_16">
     <g id="line2d_94">
      <path clip-path="url(#p67f88bca3a)" d="M 72 283.816176 
L 518.4 283.816176 
" style="fill:none;stroke:#ffffff;stroke-linecap:round;"/>
     </g>
     <g id="line2d_95">
      <g>
       <use style="fill:#262626;stroke:#262626;" x="72.0" xlink:href="#m89a49eee0b" y="283.816176471"/>
      </g>
     </g>
     <g id="line2d_96">
      <g>
       <use style="fill:#262626;stroke:#262626;" x="518.4" xlink:href="#m89a49eee0b" y="283.816176471"/>
      </g>
     </g>
     <g id="text_27">
      <!-- 0.02 -->
      <g style="fill:#262626;" transform="translate(39.70078125 287.176879596)scale(0.13 -0.13)">
       <use xlink:href="#ArialMT-30"/>
       <use x="55.615234375" xlink:href="#ArialMT-2e"/>
       <use x="83.3984375" xlink:href="#ArialMT-30"/>
       <use x="139.013671875" xlink:href="#ArialMT-32"/>
      </g>
     </g>
    </g>
    <g id="ytick_17">
     <g id="line2d_97">
      <path clip-path="url(#p67f88bca3a)" d="M 72 271.279412 
L 518.4 271.279412 
" style="fill:none;stroke:#ffffff;stroke-linecap:round;"/>
     </g>
     <g id="line2d_98">
      <g>
       <use style="fill:#262626;stroke:#262626;" x="72.0" xlink:href="#m89a49eee0b" y="271.279411765"/>
      </g>
     </g>
     <g id="line2d_99">
      <g>
       <use style="fill:#262626;stroke:#262626;" x="518.4" xlink:href="#m89a49eee0b" y="271.279411765"/>
      </g>
     </g>
    </g>
    <g id="text_28">
     <!-- fractional -->
     <defs>
      <path d="M 6.59375 0 
L 6.59375 51.859375 
L 14.5 51.859375 
L 14.5 44.484375 
Q 20.21875 53.03125 31 53.03125 
Q 35.6875 53.03125 39.625 51.34375 
Q 43.5625 49.65625 45.515625 46.921875 
Q 47.46875 44.1875 48.25 40.4375 
Q 48.734375 37.984375 48.734375 31.890625 
L 48.734375 0 
L 39.9375 0 
L 39.9375 31.546875 
Q 39.9375 36.921875 38.90625 39.578125 
Q 37.890625 42.234375 35.28125 43.8125 
Q 32.671875 45.40625 29.15625 45.40625 
Q 23.53125 45.40625 19.453125 41.84375 
Q 15.375 38.28125 15.375 28.328125 
L 15.375 0 
z
" id="ArialMT-6e"/>
     </defs>
     <g style="fill:#262626;" transform="translate(9.1409125 337.899713695)rotate(-90.0)scale(0.14300000000000002 -0.14300000000000002)">
      <use xlink:href="#ArialMT-66"/>
      <use x="27.783203125" xlink:href="#ArialMT-72"/>
      <use x="61.083984375" xlink:href="#ArialMT-61"/>
      <use x="116.69921875" xlink:href="#ArialMT-63"/>
      <use x="166.69921875" xlink:href="#ArialMT-74"/>
      <use x="194.482421875" xlink:href="#ArialMT-69"/>
      <use x="216.69921875" xlink:href="#ArialMT-6f"/>
      <use x="272.314453125" xlink:href="#ArialMT-6e"/>
      <use x="327.9296875" xlink:href="#ArialMT-61"/>
      <use x="383.544921875" xlink:href="#ArialMT-6c"/>
     </g>
     <!-- difference -->
     <g style="fill:#262626;" transform="translate(24.26584375 340.286026195)rotate(-90.0)scale(0.14300000000000002 -0.14300000000000002)">
      <use xlink:href="#ArialMT-64"/>
      <use x="55.615234375" xlink:href="#ArialMT-69"/>
      <use x="77.83203125" xlink:href="#ArialMT-66"/>
      <use x="105.599609375" xlink:href="#ArialMT-66"/>
      <use x="133.3828125" xlink:href="#ArialMT-65"/>
      <use x="188.998046875" xlink:href="#ArialMT-72"/>
      <use x="222.298828125" xlink:href="#ArialMT-65"/>
      <use x="277.9140625" xlink:href="#ArialMT-6e"/>
      <use x="333.529296875" xlink:href="#ArialMT-63"/>
      <use x="383.529296875" xlink:href="#ArialMT-65"/>
     </g>
    </g>
   </g>
   <g id="line2d_100">
    <path clip-path="url(#p67f88bca3a)" d="M 72 308.889706 
L 518.4 308.889706 
" style="fill:none;stroke:#4c72b0;stroke-linecap:round;stroke-width:3.0;"/>
   </g>
   <g id="line2d_101">
    <path clip-path="url(#p67f88bca3a)" d="M 72 274.594818 
L 73.304862 279.406016 
L 74.644062 284.275415 
L 75.983262 288.517801 
L 77.3568 292.764242 
L 78.764677 297.028631 
L 80.172554 300.726141 
L 81.614769 304.248303 
L 83.091323 307.897786 
L 84.567877 310.793308 
L 86.078769 313.75371 
L 87.624 316.589088 
L 89.203569 319.303058 
L 90.783138 321.550374 
L 92.431385 324.06507 
L 94.079631 325.887921 
L 95.762215 327.71539 
L 97.479138 329.335914 
L 99.2304 330.839466 
L 101.016 332.204091 
L 102.835938 333.274072 
L 104.690215 334.203719 
L 106.578831 334.95399 
L 108.501785 335.485509 
L 110.459077 335.746985 
L 112.485046 336.12893 
L 114.511015 335.879682 
L 116.605662 335.867186 
L 118.734646 335.48211 
L 120.932308 335.23345 
L 123.164308 334.752606 
L 125.430646 333.985098 
L 127.765662 333.22368 
L 130.135015 332.227036 
L 132.573046 331.219702 
L 135.079754 330.16175 
L 137.6208 328.923716 
L 140.230523 327.582859 
L 142.908923 326.263979 
L 145.656 325.02738 
L 148.471754 323.7088 
L 151.356185 322.418325 
L 154.309292 320.851057 
L 157.331077 319.380859 
L 160.455877 318.046688 
L 163.649354 316.663965 
L 166.945846 315.398818 
L 170.345354 314.316894 
L 173.813538 312.985733 
L 177.384738 311.740078 
L 181.058954 310.429849 
L 184.870523 309.31704 
L 188.785108 308.166861 
L 192.802708 307.212359 
L 196.957662 306.430729 
L 201.284308 305.82403 
L 205.713969 304.724442 
L 210.280985 303.838572 
L 215.054031 303.164344 
L 219.964431 302.808305 
L 225.046523 302.320348 
L 230.300308 301.998872 
L 235.794462 301.943888 
L 241.460308 301.681442 
L 247.366523 301.925704 
L 253.513108 301.973771 
L 259.9344 303.026372 
L 266.596062 304.280579 
L 273.532431 304.488039 
L 280.812185 305.652457 
L 288.400985 306.644253 
L 296.367508 308.195669 
L 304.711754 309.416587 
L 313.468062 311.028938 
L 322.670769 311.301459 
L 332.388554 313.686336 
L 342.621415 315.877746 
L 353.403692 317.048481 
L 364.872738 318.946813 
L 376.994215 320.55526 
L 389.905477 322.336315 
L 403.640862 321.942675 
L 418.337723 321.821862 
L 434.064738 318.589938 
L 450.9936 316.924839 
L 469.192985 315.696613 
L 488.903262 311.069841 
L 510.330462 306.881677 
" style="fill:none;stroke:#c44e52;stroke-linecap:round;stroke-width:3.0;"/>
   </g>
   <g id="patch_8">
    <path d="M 72 271.279412 
L 518.4 271.279412 
" style="fill:none;"/>
   </g>
   <g id="patch_9">
    <path d="M 72 346.5 
L 72 271.279412 
" style="fill:none;"/>
   </g>
   <g id="patch_10">
    <path d="M 72 346.5 
L 518.4 346.5 
" style="fill:none;"/>
   </g>
   <g id="patch_11">
    <path d="M 518.4 346.5 
L 518.4 271.279412 
" style="fill:none;"/>
   </g>
  </g>
 </g>
 <defs>
  <clipPath id="p67f88bca3a">
   <rect height="75.2205882353" width="446.4" x="72.0" y="271.279411765"/>
  </clipPath>
  <clipPath id="pe5f19b5164">
   <rect height="225.661764706" width="446.4" x="72.0" y="39.6"/>
  </clipPath>
 </defs>
</svg>
