<?xml version="1.0" encoding="UTF-8" standalone="no"?>
<svg
   width="665.362"
   height="263.66599"
   viewBox="0 0 665.362 263.66599"
   version="1.1"
   xml:space="preserve"
   style="clip-rule:evenodd;fill-rule:evenodd;stroke-linejoin:round;stroke-miterlimit:2"
   id="svg51"
   sodipodi:docname="orthoflow-banner.svg"
   inkscape:version="1.3.2 (091e20e, 2023-11-25)"
   xmlns:inkscape="http://www.inkscape.org/namespaces/inkscape"
   xmlns:sodipodi="http://sodipodi.sourceforge.net/DTD/sodipodi-0.dtd"
   xmlns="http://www.w3.org/2000/svg"
   xmlns:svg="http://www.w3.org/2000/svg"
   xmlns:serif="http://www.serif.com/"><sodipodi:namedview
   id="namedview51"
   pagecolor="#ffffff"
   bordercolor="#666666"
   borderopacity="1.0"
   inkscape:showpageshadow="2"
   inkscape:pageopacity="0.0"
   inkscape:pagecheckerboard="0"
   inkscape:deskcolor="#d1d1d1"
   inkscape:zoom="0.78239463"
   inkscape:cx="333.59125"
   inkscape:cy="205.77851"
   inkscape:window-width="1576"
   inkscape:window-height="1097"
   inkscape:window-x="2465"
   inkscape:window-y="230"
   inkscape:window-maximized="0"
   inkscape:current-layer="Artboard11" />
    <rect
   id="Artboard1"
   x="-307.319"
   y="-113.1661"
   width="1280"
   height="640"
   style="fill:none" />
    <g
   id="Artboard11"
   serif:id="Artboard1"
   transform="translate(-307.319,-113.1661)">
        
        <g
   transform="translate(0,16.6231)"
   id="g50">
            <path
   d="m 396.781,360.209 c 2.285,-2.093 4.068,-4.682 5.347,-7.767 1.28,-3.084 1.92,-6.389 1.92,-9.915 v -8.758 h 97.342 v -87.911 h 21.937 v 87.911 h 36.743 v -16.524 h 21.936 v 42.964 z m 322.876,-26.274 h 31.945 l -7.541,-14.046 -5.484,-13.385 -3.153,-13.055 -0.823,-6.279 -0.411,-6.115 v -35.197 h 21.936 v 35.197 l 0.137,3.305 0.412,3.305 1.508,6.445 2.056,6.279 2.605,5.949 8.227,14.707 13.298,18.343 c 1.92,2.313 2.88,5.177 2.88,8.593 0,3.415 -0.983,6.306 -2.948,8.675 -1.965,2.369 -4.365,3.553 -7.198,3.553 h -90.625 c 4.753,-2.644 8.912,-6.224 12.477,-10.741 3.564,-4.517 6.261,-9.75 8.089,-15.699 h 12.613 z m 169.596,0 h 26.735 v 26.274 H 869.51 c 2.194,-1.432 4.159,-3.305 5.895,-5.619 l 0.823,-1.156 z m -219.501,-0.166 c 2.011,0 3.884,-0.468 5.621,-1.404 1.737,-0.937 3.268,-2.176 4.593,-3.718 1.325,-1.543 2.376,-3.388 3.153,-5.536 0.777,-2.148 1.166,-4.489 1.166,-7.023 v -26.274 c 0,-2.424 -0.389,-4.71 -1.166,-6.858 -0.777,-2.148 -1.828,-4.021 -3.153,-5.619 -1.325,-1.597 -2.856,-2.864 -4.593,-3.8 -1.737,-0.937 -3.61,-1.405 -5.621,-1.405 h -21.936 c -2.011,0 -3.908,0.468 -5.69,1.405 -1.783,0.936 -3.336,2.203 -4.662,3.8 -1.325,1.598 -2.376,3.471 -3.153,5.619 -0.777,2.148 -1.165,4.434 -1.165,6.858 v 26.274 c 0,5.288 1.645,9.749 4.935,13.385 h -25.089 c -0.549,-2.203 -0.983,-4.407 -1.303,-6.61 -0.32,-2.203 -0.48,-4.462 -0.48,-6.775 v -26.274 c 0,-6.059 0.96,-11.76 2.879,-17.103 1.92,-5.343 4.548,-10.025 7.884,-14.046 3.336,-4.021 7.22,-7.189 11.653,-9.502 4.433,-2.314 9.163,-3.47 14.191,-3.47 h 21.936 c 5.027,0 9.757,1.156 14.19,3.47 4.433,2.313 8.295,5.481 11.585,9.502 3.291,4.021 5.896,8.703 7.815,14.046 1.919,5.343 2.879,11.044 2.879,17.103 v 26.274 c 0,6.169 -0.96,11.925 -2.879,17.268 -1.919,5.343 -4.524,9.998 -7.815,13.964 -3.29,3.965 -7.152,7.105 -11.585,9.419 -4.433,2.313 -9.163,3.47 -14.19,3.47 h -84.181 v -26.44 z m 202.911,17.847 c -2.102,2.754 -4.57,4.875 -7.403,6.362 -2.834,1.487 -5.804,2.231 -8.912,2.231 h -3.153 c -6.398,0 -11.791,-2.809 -16.178,-8.428 l -14.807,-22.143 -3.976,-7.271 -3.976,7.271 -14.807,22.143 c -3.565,4.517 -7.769,7.271 -12.614,8.263 1.371,-1.653 2.4,-3.498 3.085,-5.536 0.686,-2.038 1.051,-4.131 1.097,-6.28 0.046,-2.148 -0.251,-4.241 -0.891,-6.279 -0.64,-2.038 -1.645,-3.883 -3.017,-5.536 l -0.137,-0.165 -2.742,-3.47 8.089,-11.733 8.364,-14.707 2.467,-5.949 2.194,-6.279 1.371,-6.445 0.411,-3.305 0.138,-3.305 v -35.197 h 21.936 v 35.197 l 0.137,3.305 0.411,3.305 1.508,6.445 2.057,6.279 2.605,5.949 8.226,14.707 8.5,12.229 c 0.549,0.771 1.234,1.156 2.057,1.156 0.823,0 1.554,-0.275 2.194,-0.826 0,-0.11 0.045,-0.22 0.137,-0.33 l 8.363,-12.229 8.363,-14.707 2.468,-5.949 2.057,-6.279 1.508,-6.445 0.411,-3.305 0.137,-3.305 v -35.197 h 21.936 v 35.197 l -0.548,7.767 -1.097,7.601 -1.919,7.602 -2.468,7.105 -7.815,16.36 -14.944,22.969 z M 342.986,184.62 h 72.441 c 2.011,0 3.885,-0.469 5.621,-1.405 1.737,-0.936 3.268,-2.176 4.593,-3.718 1.326,-1.542 2.377,-3.388 3.154,-5.536 0.776,-2.148 1.165,-4.489 1.165,-7.023 v -26.274 c 0,-2.424 -0.389,-4.71 -1.165,-6.858 -0.777,-2.148 -1.828,-4.021 -3.154,-5.618 -1.325,-1.598 -2.856,-2.865 -4.593,-3.801 -1.736,-0.936 -3.61,-1.405 -5.621,-1.405 h -21.936 c -2.011,0 -3.908,0.469 -5.69,1.405 -1.782,0.936 -3.336,2.203 -4.662,3.801 -1.325,1.597 -2.376,3.47 -3.153,5.618 -0.777,2.148 -1.165,4.434 -1.165,6.858 v 26.274 c 0,5.288 1.645,9.75 4.935,13.385 h -25.089 c -0.549,-2.203 -0.983,-4.406 -1.303,-6.61 -0.32,-2.203 -0.48,-4.461 -0.48,-6.775 v -26.274 c 0,-6.059 0.96,-11.76 2.88,-17.103 1.919,-5.343 4.547,-10.025 7.883,-14.046 3.336,-4.021 7.221,-7.188 11.654,-9.502 4.433,-2.313 9.163,-3.47 14.19,-3.47 h 21.936 c 5.027,0 9.757,1.157 14.19,3.47 4.433,2.314 8.295,5.481 11.585,9.502 3.291,4.021 5.896,8.703 7.815,14.046 1.92,5.343 2.879,11.044 2.879,17.103 v 26.274 c 0,6.169 -0.959,11.925 -2.879,17.268 -1.919,5.343 -4.524,9.998 -7.815,13.964 -3.29,3.966 -7.152,7.105 -11.585,9.419 -4.433,2.313 -9.163,3.47 -14.19,3.47 h -73.075 v -0.215 c -1.474,0.172 -2.869,0.612 -4.185,1.322 -1.737,0.937 -3.268,2.204 -4.593,3.801 -1.326,1.597 -2.377,3.47 -3.154,5.618 -0.777,2.149 -1.165,4.434 -1.165,6.858 v 17.599 h -0.03 v 52.447 h 0.03 v 17.599 c 0,2.423 0.388,4.709 1.165,6.858 0.777,2.148 1.828,4.021 3.154,5.618 1.325,1.597 2.856,2.864 4.593,3.801 1.736,0.936 3.61,1.404 5.621,1.404 h 34.621 v -88.076 h 95.012 v 26.439 h -73.075 v 17.682 h 51.139 v 26.439 h -51.139 v 26.274 c 0,2.424 -0.389,4.71 -1.166,6.858 -0.776,2.148 -1.828,4.021 -3.153,5.619 -1.325,1.597 -2.856,2.864 -4.593,3.8 -1.736,0.937 -3.61,1.405 -5.621,1.405 h -42.025 c -5.027,0 -9.757,-1.157 -14.19,-3.47 -4.433,-2.314 -8.295,-5.481 -11.585,-9.502 -3.291,-4.021 -5.896,-8.703 -7.815,-14.046 -1.92,-5.343 -2.879,-11.044 -2.879,-17.103 v -87.645 c 0,-6.059 0.959,-11.76 2.879,-17.103 1.919,-5.343 4.524,-10.025 7.815,-14.046 3.29,-4.021 7.152,-7.188 11.585,-9.502 4.196,-2.19 8.659,-3.343 13.388,-3.46 z m 594.028,0 v -0.288 c 4.729,0.117 9.192,1.27 13.388,3.46 4.433,2.314 8.295,5.481 11.585,9.502 3.291,4.021 5.896,8.703 7.815,14.046 1.92,5.343 2.879,11.044 2.879,17.103 v 87.645 c 0,6.059 -0.959,11.76 -2.879,17.103 -1.919,5.343 -4.524,10.025 -7.815,14.046 -3.29,4.021 -7.152,7.188 -11.585,9.502 -4.433,2.313 -9.163,3.47 -14.19,3.47 h -20.089 v -26.44 h 20.089 c 2.011,0 3.885,-0.468 5.621,-1.404 1.737,-0.937 3.268,-2.204 4.593,-3.801 1.326,-1.597 2.377,-3.47 3.154,-5.618 0.777,-2.149 1.165,-4.435 1.165,-6.858 v -17.599 h 0.03 v -52.447 h -0.03 v -17.599 c 0,-2.424 -0.388,-4.709 -1.165,-6.858 -0.777,-2.148 -1.828,-4.021 -3.154,-5.618 -1.325,-1.597 -2.856,-2.864 -4.593,-3.801 -1.356,-0.731 -2.796,-1.177 -4.32,-1.337 v 0.23 h -33.179 c 4.753,-2.644 8.912,-6.224 12.476,-10.741 3.565,-4.517 6.261,-9.75 8.089,-15.698 z M 336.658,350.625 c -1.096,0 -1.645,0.66 -1.645,1.982 0,0.551 0.16,1.019 0.48,1.405 0.32,0.386 0.708,0.578 1.165,0.578 0.457,0 0.846,-0.192 1.166,-0.578 0.32,-0.386 0.48,-0.854 0.48,-1.405 0,-0.55 -0.16,-1.019 -0.48,-1.404 -0.32,-0.386 -0.709,-0.578 -1.166,-0.578 z m 606.684,0 c 1.096,0 1.645,0.66 1.645,1.982 0,0.551 -0.16,1.019 -0.48,1.405 -0.32,0.386 -0.708,0.578 -1.165,0.578 -0.457,0 -0.846,-0.192 -1.166,-0.578 -0.32,-0.386 -0.48,-0.854 -0.48,-1.405 0,-0.55 0.16,-1.019 0.48,-1.404 0.32,-0.386 0.709,-0.578 1.166,-0.578 z m -612.031,-2.644 c -3.656,-2.204 -6.809,-5.123 -9.46,-8.759 -2.65,-3.635 -4.57,-7.766 -5.758,-12.393 v -0.165 c -0.457,-1.102 -1.188,-1.543 -2.194,-1.322 -0.914,0.22 -1.371,0.936 -1.371,2.148 v 0.661 c 1.371,5.288 3.565,9.997 6.581,14.129 3.017,4.131 6.627,7.353 10.831,9.666 0.457,0.221 0.914,0.248 1.371,0.083 0.457,-0.165 0.777,-0.523 0.96,-1.074 0.457,-1.212 0.183,-2.203 -0.822,-2.974 z m 617.378,0 c 3.656,-2.204 6.809,-5.123 9.46,-8.759 2.65,-3.635 4.57,-7.766 5.758,-12.393 v -0.165 c 0.457,-1.102 1.188,-1.543 2.194,-1.322 0.914,0.22 1.371,0.936 1.371,2.148 v 0.661 c -1.371,5.288 -3.565,9.997 -6.581,14.129 -3.017,4.131 -6.627,7.353 -10.831,9.666 -0.457,0.221 -0.914,0.248 -1.371,0.083 -0.457,-0.165 -0.777,-0.523 -0.96,-1.074 -0.457,-1.212 -0.183,-2.203 0.822,-2.974 z m -372.03,1.983 c 0.64,0 1.143,-0.248 1.509,-0.744 0.365,-0.496 0.548,-1.074 0.548,-1.735 0,-1.542 -0.686,-2.314 -2.057,-2.314 -1.279,0 -1.919,0.772 -1.919,2.314 0,0.661 0.183,1.239 0.548,1.735 0.366,0.496 0.823,0.744 1.371,0.744 z m -11.105,-27.101 c -1.188,0 -1.782,0.771 -1.782,2.313 0,1.433 0.594,2.149 1.782,2.149 h 9.186 v 13.385 c 0,1.432 0.594,2.148 1.782,2.148 1.189,0 1.783,-0.716 1.783,-2.148 v -17.847 z m 170.281,15.533 c -1.279,0 -1.919,0.716 -1.919,2.148 0,1.433 0.64,2.149 1.919,2.149 h 13.025 c 1.188,0 1.782,-0.716 1.782,-2.149 0,-1.432 -0.594,-2.148 -1.782,-2.148 z m -6.855,4.297 c 1.371,0 2.057,-0.827 2.057,-2.479 0,-1.542 -0.686,-2.314 -2.057,-2.314 -0.457,0 -0.891,0.221 -1.302,0.661 -0.412,0.441 -0.617,0.992 -0.617,1.653 0,0.771 0.205,1.377 0.617,1.818 0.411,0.44 0.845,0.661 1.302,0.661 z M 891.995,337.9 c -0.549,0 -1.028,0.221 -1.44,0.661 -0.411,0.441 -0.617,0.992 -0.617,1.653 0,0.771 0.206,1.377 0.617,1.818 0.412,0.44 0.891,0.661 1.44,0.661 0.548,0 1.028,-0.221 1.439,-0.661 0.412,-0.441 0.617,-1.047 0.617,-1.818 0,-0.661 -0.205,-1.212 -0.617,-1.653 -0.411,-0.44 -0.891,-0.661 -1.439,-0.661 z m 6.718,0.496 c -1.28,0 -1.92,0.716 -1.92,2.148 0,1.433 0.64,2.149 1.92,2.149 h 13.025 c 1.188,0 1.782,-0.716 1.782,-2.149 0,-1.432 -0.594,-2.148 -1.782,-2.148 z m -375.249,2.148 c 0,1.433 0.594,2.149 1.782,2.149 h 29.066 c 1.188,0 1.782,-0.716 1.782,-2.149 0,-1.542 -0.594,-2.313 -1.782,-2.313 h -29.066 c -1.188,0 -1.782,0.771 -1.782,2.313 z m -4.799,2.149 c 0.549,0 1.006,-0.248 1.371,-0.744 0.366,-0.496 0.549,-1.074 0.549,-1.735 0,-1.542 -0.64,-2.314 -1.92,-2.314 -0.548,0 -1.028,0.221 -1.439,0.661 -0.412,0.441 -0.617,0.992 -0.617,1.653 0,0.661 0.205,1.239 0.617,1.735 0.411,0.496 0.891,0.744 1.439,0.744 z m -105.294,0 c 0.548,0 1.028,-0.248 1.439,-0.744 0.411,-0.496 0.617,-1.074 0.617,-1.735 0,-0.661 -0.206,-1.239 -0.617,-1.735 -0.411,-0.496 -0.891,-0.744 -1.439,-0.744 -0.549,0 -1.006,0.248 -1.371,0.744 -0.366,0.496 -0.549,1.074 -0.549,1.735 0,0.661 0.183,1.239 0.549,1.735 0.365,0.496 0.822,0.744 1.371,0.744 z m 213.605,-2.314 c 0,1.432 0.594,2.148 1.782,2.148 h 40.994 c 4.661,0 8.866,-1.597 12.613,-4.792 0.549,-0.44 0.823,-1.046 0.823,-1.817 0,-1.543 -0.594,-2.314 -1.782,-2.314 -0.275,0 -0.595,0.11 -0.96,0.331 -3.199,2.864 -6.764,4.296 -10.694,4.296 h -40.994 c -1.188,0 -1.782,0.716 -1.782,2.148 z m -206.887,-2.148 c -1.189,0 -1.783,0.716 -1.783,2.148 0,1.432 0.594,2.148 1.783,2.148 h 61.97 c 1.279,0 1.919,-0.716 1.919,-2.148 0,-1.432 -0.64,-2.148 -1.919,-2.148 z m 423.646,-4.957 c 1.188,0 1.782,-0.717 1.782,-2.149 0,-1.542 -0.594,-2.313 -1.782,-2.313 -1.28,0 -1.92,0.771 -1.92,2.313 0,1.432 0.64,2.149 1.92,2.149 z m -158.353,-5.619 c -1.189,0 -1.783,0.661 -1.783,1.983 0,1.432 0.594,2.148 1.783,2.148 1.188,0 1.782,-0.716 1.782,-2.148 0,-1.322 -0.594,-1.983 -1.782,-1.983 z m 155.611,-0.496 c 0.548,-0.33 0.822,-0.936 0.822,-1.817 l -0.411,-1.322 -4.936,-8.263 -6.443,-13.55 -3.154,-10.41 -0.96,-5.288 -0.411,-5.454 V 250.32 h -7.54 c -1.189,0 -1.783,0.716 -1.783,2.148 0,1.432 0.594,2.148 1.783,2.148 h 3.975 v 26.439 l 0.138,4.462 0.548,4.462 2.194,8.593 5.072,12.724 8.638,15.533 c 0.822,0.991 1.645,1.102 2.468,0.33 z m -212.235,-2.974 c 0.914,-0.22 1.371,-0.936 1.371,-2.148 l -0.137,-0.331 h 0.137 l -0.548,-5.618 v -14.872 c 0,-1.433 -0.64,-2.149 -1.92,-2.149 -1.188,0 -1.782,0.716 -1.782,2.149 v 14.872 l 0.686,6.775 c 0.365,1.212 1.096,1.652 2.193,1.322 z m 135.869,-4.792 c -0.549,0 -1.029,0.22 -1.44,0.661 -0.411,0.44 -0.617,0.991 -0.617,1.652 0,0.661 0.206,1.212 0.617,1.653 0.411,0.44 0.891,0.661 1.44,0.661 0.457,0 0.891,-0.221 1.302,-0.661 0.411,-0.441 0.617,-0.992 0.617,-1.653 0,-0.661 -0.206,-1.212 -0.617,-1.652 -0.411,-0.441 -0.845,-0.661 -1.302,-0.661 z m -12.888,-20.821 2.879,7.932 4.799,9.914 c 0.64,1.212 1.462,1.488 2.468,0.827 0.639,-0.551 0.959,-1.212 0.959,-1.983 l -0.411,-1.322 -5.484,-11.733 -1.782,-5.123 -1.371,-5.287 -0.96,-5.288 -0.274,-5.454 V 250.32 h -8.638 c -1.188,0 -1.782,0.716 -1.782,2.148 0,1.432 0.594,2.148 1.782,2.148 h 4.936 v 26.439 l 0.137,4.462 0.686,4.462 z m -233.211,11.402 c -0.64,0 -1.142,0.248 -1.508,0.743 -0.366,0.496 -0.549,1.074 -0.549,1.735 0,1.653 0.686,2.479 2.057,2.479 0.548,0 1.028,-0.22 1.44,-0.661 0.411,-0.441 0.617,-1.046 0.617,-1.818 0,-0.661 -0.206,-1.239 -0.617,-1.735 -0.412,-0.495 -0.892,-0.743 -1.44,-0.743 z M 418.169,294.11 c -1.188,0 -1.782,0.716 -1.782,2.148 0,1.543 0.594,2.314 1.782,2.314 h 26.05 v 6.775 c 0,1.542 0.594,2.313 1.782,2.313 1.188,0 1.782,-0.771 1.782,-2.313 V 294.11 Z m 90.625,-41.973 c 0,1.543 0.594,2.314 1.782,2.314 h 6.17 v 49.739 c 0,1.432 0.594,2.148 1.782,2.148 1.188,0 1.782,-0.716 1.782,-2.148 v -54.201 h -9.734 c -1.188,0 -1.782,0.716 -1.782,2.148 z m 384.709,52.053 c 1.28,0 1.919,-0.716 1.919,-2.148 0,-1.542 -0.639,-2.314 -1.919,-2.314 -1.188,0 -1.782,0.772 -1.782,2.314 0,1.432 0.594,2.148 1.782,2.148 z M 411.725,293.78 c -0.548,0 -1.028,0.247 -1.439,0.743 -0.412,0.496 -0.617,1.074 -0.617,1.735 0,0.661 0.205,1.24 0.617,1.735 0.411,0.496 0.891,0.744 1.439,0.744 0.549,0 1.006,-0.248 1.371,-0.744 0.366,-0.495 0.549,-1.074 0.549,-1.735 0,-0.661 -0.183,-1.239 -0.549,-1.735 -0.365,-0.496 -0.822,-0.743 -1.371,-0.743 z m 477.391,-41.643 c -0.183,1.432 0.32,2.259 1.508,2.479 h 4.387 v 26.439 l -0.548,6.941 -1.097,6.775 c -0.183,1.322 0.228,2.203 1.234,2.644 1.188,0.33 1.965,-0.165 2.33,-1.487 l 1.234,-7.436 0.412,-7.437 V 250.32 h -7.267 c -0.274,-0.111 -0.502,-0.111 -0.685,0 -0.823,0 -1.326,0.605 -1.508,1.817 z m -261.455,39.825 c -1.279,0 -1.919,0.771 -1.919,2.313 0,1.432 0.64,2.148 1.919,2.148 1.189,0 1.783,-0.716 1.783,-2.148 0,-1.542 -0.594,-2.313 -1.783,-2.313 z m 54.567,-34.041 c 3.656,2.203 6.81,5.123 9.46,8.758 2.651,3.635 4.57,7.767 5.759,12.394 v 0.165 c 0.457,1.101 1.188,1.542 2.193,1.322 0.914,-0.221 1.371,-0.937 1.371,-2.148 v -0.661 c -1.371,-5.288 -3.564,-9.998 -6.581,-14.129 -3.016,-4.131 -6.626,-7.354 -10.831,-9.667 -0.457,-0.22 -0.914,-0.248 -1.371,-0.083 -0.457,0.166 -0.777,0.524 -0.96,1.074 -0.457,1.212 -0.182,2.204 0.823,2.975 z M 428.04,250.154 c -1.188,0 -1.782,0.716 -1.782,2.149 0,1.432 0.594,2.148 1.782,2.148 h 38.115 v 6.94 c 0,1.432 0.594,2.148 1.782,2.148 1.188,0 1.783,-0.716 1.783,-2.148 v -11.237 z m 248.841,5.123 c 1.097,0 1.645,-0.661 1.645,-1.983 0,-0.551 -0.16,-1.019 -0.479,-1.405 -0.32,-0.385 -0.709,-0.578 -1.166,-0.578 -0.457,0 -0.845,0.193 -1.165,0.578 -0.32,0.386 -0.48,0.854 -0.48,1.405 0,0.551 0.16,1.019 0.48,1.405 0.32,0.385 0.708,0.578 1.165,0.578 z m -254.873,-5.288 c -0.548,0 -1.028,0.248 -1.44,0.744 -0.411,0.495 -0.617,1.074 -0.617,1.735 0,0.661 0.206,1.239 0.617,1.735 0.412,0.496 0.892,0.743 1.44,0.743 0.548,0 1.005,-0.247 1.371,-0.743 0.366,-0.496 0.548,-1.074 0.548,-1.735 0,-0.661 -0.182,-1.24 -0.548,-1.735 -0.366,-0.496 -0.823,-0.744 -1.371,-0.744 z m 463.543,0.165 c -1.188,0 -1.782,0.716 -1.782,2.149 0,1.432 0.594,2.148 1.782,2.148 1.188,0 1.782,-0.716 1.782,-2.148 0,-1.433 -0.594,-2.149 -1.782,-2.149 z m 63.138,-53.604 c 3.656,2.204 6.809,5.123 9.46,8.758 2.65,3.636 4.57,7.767 5.758,12.394 v 0.165 c 0.457,1.102 1.188,1.543 2.194,1.322 0.914,-0.22 1.371,-0.936 1.371,-2.148 v -0.661 c -1.371,-5.288 -3.565,-9.997 -6.581,-14.129 -3.017,-4.131 -6.627,-7.353 -10.831,-9.667 -0.457,-0.22 -0.914,-0.247 -1.371,-0.082 -0.457,0.165 -0.777,0.523 -0.96,1.074 -0.457,1.212 -0.183,2.203 0.822,2.974 z m -617.378,0 c -3.656,2.204 -6.809,5.123 -9.46,8.758 -2.65,3.636 -4.57,7.767 -5.758,12.394 v 0.165 c -0.457,1.102 -1.188,1.543 -2.194,1.322 -0.914,-0.22 -1.371,-0.936 -1.371,-2.148 v -0.661 c 1.371,-5.288 3.565,-9.997 6.581,-14.129 3.017,-4.131 6.627,-7.353 10.831,-9.667 0.457,-0.22 0.914,-0.247 1.371,-0.082 0.457,0.165 0.777,0.523 0.96,1.074 0.457,1.212 0.183,2.203 -0.822,2.974 z m 134.021,-11.765 h 14.67 V 96.708 h 58.543 c 4.022,0 7.792,0.909 11.311,2.727 3.519,1.817 6.604,4.324 9.254,7.518 2.651,3.195 4.753,6.941 6.307,11.237 1.554,4.297 2.331,8.868 2.331,13.716 0,4.406 -0.64,8.593 -1.92,12.559 -1.279,3.965 -3.039,7.518 -5.278,10.658 -2.239,3.14 -4.913,5.729 -8.021,7.767 -3.107,2.038 -6.443,3.332 -10.008,3.883 l 10.146,18.012 h 29.202 v -0.165 h 43.873 V 122.982 H 596.539 V 96.708 h 80.342 v 26.274 h -29.203 v 70.396 c 0,2.533 -0.388,4.874 -1.165,7.023 -0.777,2.148 -1.828,3.993 -3.153,5.535 -1.326,1.543 -2.879,2.782 -4.662,3.718 -1.782,0.937 -3.679,1.405 -5.69,1.405 h -84.18 c -2.377,0 -4.639,-0.661 -6.787,-1.983 -2.148,-1.322 -3.907,-3.195 -5.278,-5.618 L 516.06,167.103 h -14.258 v 26.44 c 0,4.957 -1.394,9.116 -4.182,12.476 -2.788,3.36 -6.238,5.04 -10.351,5.04 h -55.115 c 4.752,-2.644 8.911,-6.224 12.476,-10.741 3.565,-4.517 6.261,-9.75 8.089,-15.698 h 12.613 z M 706.221,184.62 V 96.708 h 21.936 v 96.67 c 0,2.423 -0.388,4.709 -1.165,6.857 -0.777,2.149 -1.828,4.021 -3.153,5.619 -1.326,1.597 -2.879,2.864 -4.662,3.8 -1.782,0.937 -3.679,1.405 -5.689,1.405 h -69.511 c 2.285,-2.093 4.067,-4.682 5.347,-7.767 1.279,-3.084 1.919,-6.389 1.919,-9.914 v -8.758 z m 181.387,0 c 2.01,0 3.884,-0.469 5.621,-1.405 1.736,-0.936 3.267,-2.176 4.593,-3.718 1.325,-1.542 2.376,-3.388 3.153,-5.536 0.777,-2.148 1.165,-4.489 1.165,-7.023 v -26.274 c 0,-2.424 -0.388,-4.71 -1.165,-6.858 -0.777,-2.148 -1.828,-4.021 -3.153,-5.618 -1.326,-1.598 -2.857,-2.865 -4.593,-3.801 -1.737,-0.936 -3.611,-1.405 -5.621,-1.405 h -21.937 c -2.011,0 -3.907,0.469 -5.69,1.405 -1.782,0.936 -3.336,2.203 -4.661,3.801 -1.325,1.597 -2.377,3.47 -3.153,5.618 -0.777,2.148 -1.166,4.434 -1.166,6.858 v 26.274 c 0,5.288 1.645,9.75 4.936,13.385 h -25.09 c -0.548,-2.203 -0.982,-4.406 -1.302,-6.61 -0.32,-2.203 -0.48,-4.461 -0.48,-6.775 v -26.274 c 0,-6.059 0.96,-11.76 2.879,-17.103 1.919,-5.343 4.547,-10.025 7.883,-14.046 3.337,-4.021 7.221,-7.188 11.654,-9.502 4.433,-2.313 9.163,-3.47 14.19,-3.47 h 21.937 c 5.027,0 9.757,1.157 14.19,3.47 4.433,2.314 8.294,5.481 11.585,9.502 3.29,4.021 5.895,8.703 7.815,14.046 1.919,5.343 2.879,11.044 2.879,17.103 v 26.274 c 0,6.169 -0.96,11.925 -2.879,17.268 -1.92,5.343 -4.525,9.998 -7.815,13.964 -3.291,3.966 -7.152,7.105 -11.585,9.419 -4.433,2.313 -9.163,3.47 -14.19,3.47 H 793.83 c -2.011,0 -3.908,-0.468 -5.69,-1.405 -1.783,-0.936 -3.336,-2.203 -4.662,-3.8 -1.325,-1.598 -2.376,-3.47 -3.153,-5.619 -0.777,-2.148 -1.165,-4.434 -1.165,-6.857 V 167.103 H 731.722 V 140.664 H 779.16 V 96.708 h 21.936 v 87.912 z m 55.734,9.286 c 1.096,0 1.645,-0.661 1.645,-1.983 0,-0.55 -0.16,-1.019 -0.48,-1.404 -0.32,-0.386 -0.708,-0.579 -1.165,-0.579 -0.457,0 -0.846,0.193 -1.166,0.579 -0.32,0.385 -0.48,0.854 -0.48,1.404 0,0.551 0.16,1.019 0.48,1.405 0.32,0.386 0.709,0.578 1.166,0.578 z m -606.684,0 c -1.096,0 -1.645,-0.661 -1.645,-1.983 0,-0.55 0.16,-1.019 0.48,-1.404 0.32,-0.386 0.708,-0.579 1.165,-0.579 0.457,0 0.846,0.193 1.166,0.579 0.32,0.385 0.48,0.854 0.48,1.404 0,0.551 -0.16,1.019 -0.48,1.405 -0.32,0.386 -0.709,0.578 -1.166,0.578 z m 202.298,-17.879 9.872,17.516 h 16.178 c 1.188,0 1.782,-0.716 1.782,-2.148 0,-1.432 -0.594,-2.149 -1.782,-2.149 h -14.259 l -8.5,-15.202 c -0.092,-0.11 -0.137,-0.193 -0.137,-0.248 0,-0.055 -0.046,-0.138 -0.137,-0.248 -0.64,-0.881 -1.417,-1.047 -2.331,-0.496 -0.457,0.221 -0.731,0.634 -0.823,1.24 -0.091,0.606 -0.046,1.184 0.137,1.735 z m 34.55,15.202 c 0,-0.771 -0.206,-1.377 -0.617,-1.817 -0.411,-0.441 -0.845,-0.661 -1.302,-0.661 -0.549,0 -1.029,0.22 -1.44,0.661 -0.411,0.44 -0.617,1.046 -0.617,1.817 0,0.551 0.206,1.075 0.617,1.57 0.411,0.496 0.891,0.744 1.44,0.744 0.457,0 0.891,-0.248 1.302,-0.744 0.411,-0.495 0.617,-1.019 0.617,-1.57 z m 271.326,0 c 0,1.433 0.594,2.149 1.782,2.149 h 40.994 c 4.661,0 8.865,-1.598 12.613,-4.793 0.548,-0.44 0.823,-1.046 0.823,-1.817 0,-1.543 -0.595,-2.314 -1.783,-2.314 -0.274,0 -0.594,0.11 -0.96,0.331 -3.199,2.864 -6.763,4.296 -10.693,4.296 h -40.994 c -1.188,0 -1.782,0.716 -1.782,2.148 z m -472.181,0 c 0,1.433 0.594,2.149 1.782,2.149 h 40.994 c 4.662,0 8.866,-1.598 12.613,-4.793 0.549,-0.44 0.823,-1.046 0.823,-1.817 0,-1.543 -0.594,-2.314 -1.782,-2.314 -0.274,0 -0.594,0.11 -0.96,0.331 -3.199,2.864 -6.764,4.296 -10.694,4.296 h -40.994 c -1.188,0 -1.782,0.716 -1.782,2.148 z m 312.868,2.149 c 1.188,0 1.782,-0.716 1.782,-2.149 0,-1.432 -0.594,-2.148 -1.782,-2.148 h -18.235 c -1.188,0 -1.782,0.716 -1.782,2.148 0,1.433 0.594,2.149 1.782,2.149 z m -65.398,0 c 1.279,0 1.919,-0.716 1.919,-2.149 0,-1.432 -0.64,-2.148 -1.919,-2.148 h -19.606 c -1.279,0 -1.919,0.716 -1.919,2.148 0,1.433 0.64,2.149 1.919,2.149 z m -26.461,0 c 1.371,0 2.057,-0.771 2.057,-2.314 0,-0.661 -0.183,-1.239 -0.549,-1.735 -0.365,-0.496 -0.868,-0.744 -1.508,-0.744 -0.457,0 -0.891,0.248 -1.302,0.744 -0.412,0.496 -0.617,1.074 -0.617,1.735 0,0.661 0.205,1.212 0.617,1.653 0.411,0.44 0.845,0.661 1.302,0.661 z m 67.043,0 c 1.28,0 1.92,-0.771 1.92,-2.314 0,-0.661 -0.183,-1.239 -0.549,-1.735 -0.365,-0.496 -0.822,-0.744 -1.371,-0.744 -0.548,0 -1.028,0.248 -1.439,0.744 -0.412,0.496 -0.617,1.074 -0.617,1.735 0,0.661 0.205,1.212 0.617,1.653 0.411,0.44 0.891,0.661 1.439,0.661 z m -16.726,-52.714 c 0,-1.432 -0.594,-2.148 -1.783,-2.148 -1.279,0 -1.919,0.716 -1.919,2.148 v 41.642 h 0.137 c 0,1.432 0.594,2.148 1.782,2.148 1.189,0 1.783,-0.716 1.783,-2.148 z m 151.635,43.46 c 0.548,0 1.028,-0.221 1.439,-0.661 0.412,-0.441 0.617,-1.047 0.617,-1.818 0,-0.661 -0.205,-1.239 -0.617,-1.735 -0.411,-0.496 -0.891,-0.744 -1.439,-0.744 -0.549,0 -1.028,0.248 -1.44,0.744 -0.411,0.496 -0.617,1.074 -0.617,1.735 0,0.771 0.206,1.377 0.617,1.818 0.412,0.44 0.891,0.661 1.44,0.661 z m 107.625,-5.619 c -1.188,0 -1.782,0.661 -1.782,1.983 0,1.433 0.594,2.149 1.782,2.149 1.188,0 1.783,-0.716 1.783,-2.149 0,-1.322 -0.595,-1.983 -1.783,-1.983 z m -472.18,0 c -1.188,0 -1.783,0.661 -1.783,1.983 0,1.433 0.595,2.149 1.783,2.149 1.188,0 1.782,-0.716 1.782,-2.149 0,-1.322 -0.594,-1.983 -1.782,-1.983 z m 356.603,-77.5 c -1.188,0 -1.782,0.716 -1.782,2.148 0,1.542 0.594,2.313 1.782,2.313 h 6.17 v 67.752 c 0,1.432 0.594,2.148 1.782,2.148 1.279,0 1.919,-0.716 1.919,-2.148 v -72.213 z m -413.227,74.03 c 0.914,-0.22 1.371,-0.936 1.371,-2.148 l -0.137,-0.33 h 0.137 l -0.548,-5.619 v -14.872 c 0,-1.432 -0.64,-2.148 -1.919,-2.148 -1.189,0 -1.783,0.716 -1.783,2.148 v 14.872 l 0.686,6.775 c 0.365,1.212 1.097,1.653 2.193,1.322 z m 472.181,0 c 0.914,-0.22 1.371,-0.936 1.371,-2.148 l -0.137,-0.33 h 0.137 l -0.548,-5.619 v -14.872 c 0,-1.432 -0.64,-2.148 -1.92,-2.148 -1.188,0 -1.782,0.716 -1.782,2.148 v 14.872 l 0.685,6.775 c 0.366,1.212 1.097,1.653 2.194,1.322 z M 722.536,151.57 c 0.64,0 1.143,-0.248 1.508,-0.743 0.366,-0.496 0.549,-1.075 0.549,-1.736 0,-1.652 -0.686,-2.478 -2.057,-2.478 -0.548,0 -1.028,0.22 -1.439,0.661 -0.412,0.44 -0.617,1.046 -0.617,1.817 0,0.661 0.205,1.24 0.617,1.736 0.411,0.495 0.891,0.743 1.439,0.743 z m -211,-4.131 c 0,-1.432 -0.594,-2.148 -1.783,-2.148 -1.188,0 -1.782,0.716 -1.782,2.148 0,1.432 0.594,2.148 1.782,2.148 1.189,0 1.783,-0.716 1.783,-2.148 z m 230.606,2.148 c 1.371,0 2.056,-0.771 2.056,-2.313 0,-0.661 -0.182,-1.24 -0.548,-1.735 -0.366,-0.496 -0.868,-0.744 -1.508,-0.744 -0.457,0 -0.891,0.248 -1.303,0.744 -0.411,0.495 -0.617,1.074 -0.617,1.735 0,0.661 0.206,1.212 0.617,1.652 0.412,0.441 0.846,0.661 1.303,0.661 z M 546.36,141.16 c -2.194,2.644 -4.799,3.966 -7.815,3.966 h -22.896 c -1.188,0 -1.782,0.771 -1.782,2.313 0,1.432 0.594,2.148 1.782,2.148 h 22.896 c 1.919,0 3.793,-0.468 5.621,-1.404 1.828,-0.937 3.428,-2.231 4.799,-3.884 l 0.548,-1.652 c 0,-1.543 -0.594,-2.314 -1.782,-2.314 -0.64,0 -1.097,0.276 -1.371,0.827 z m 232.8,8.262 c 1.279,0 1.919,-0.716 1.919,-2.148 0,-1.543 -0.64,-2.314 -1.919,-2.314 h -31.123 c -1.188,0 -1.782,0.771 -1.782,2.314 0,1.432 0.594,2.148 1.782,2.148 z m -405.823,-6.61 c -1.28,0 -1.92,0.771 -1.92,2.314 0,1.432 0.64,2.148 1.92,2.148 1.188,0 1.782,-0.716 1.782,-2.148 0,-1.543 -0.594,-2.314 -1.782,-2.314 z m 472.18,0 c -1.28,0 -1.919,0.771 -1.919,2.314 0,1.432 0.639,2.148 1.919,2.148 1.188,0 1.782,-0.716 1.782,-2.148 0,-1.543 -0.594,-2.314 -1.782,-2.314 z m -284.213,2.809 c 1.645,-3.745 2.559,-7.656 2.742,-11.732 0.183,-4.076 -0.251,-7.987 -1.302,-11.733 -1.052,-3.745 -2.674,-7.188 -4.868,-10.328 -2.193,-3.139 -4.89,-5.646 -8.089,-7.519 -3.473,-2.203 -7.22,-3.304 -11.242,-3.304 h -12.613 c -0.549,0 -1.006,0.247 -1.371,0.743 -0.366,0.496 -0.549,1.019 -0.549,1.57 0,1.542 0.64,2.313 1.92,2.313 h 12.613 c 1.645,0 3.29,0.221 4.936,0.661 1.645,0.441 3.244,1.102 4.798,1.983 2.651,1.653 4.913,3.774 6.787,6.362 1.874,2.589 3.245,5.481 4.113,8.676 0.868,3.195 1.257,6.5 1.165,9.915 -0.091,3.415 -0.777,6.775 -2.056,10.08 -0.092,0.22 -0.137,0.33 -0.137,0.33 -0.183,0.551 -0.206,1.074 -0.069,1.57 0.137,0.496 0.389,0.854 0.754,1.074 0.457,0.331 0.937,0.441 1.44,0.331 0.502,-0.11 0.845,-0.441 1.028,-0.992 z m 151.498,-42.468 c 0,1.542 0.594,2.313 1.782,2.313 h 6.17 v 35.198 c 0,1.432 0.594,2.148 1.782,2.148 1.28,0 1.92,-0.716 1.92,-2.148 v -39.659 h -9.872 c -1.188,0 -1.782,0.716 -1.782,2.148 z m -166.991,28.753 c 0,-2.424 -0.708,-4.489 -2.125,-6.197 -1.416,-1.708 -3.13,-2.561 -5.141,-2.561 h -36.743 v 17.516 h 36.743 c 2.011,0 3.725,-0.826 5.141,-2.479 1.417,-1.652 2.125,-3.745 2.125,-6.279 z m 96.246,3.139 c 1.28,0 1.92,-0.716 1.92,-2.148 0,-0.661 -0.183,-1.239 -0.549,-1.735 -0.365,-0.496 -0.822,-0.743 -1.371,-0.743 -0.457,0 -0.868,0.247 -1.234,0.743 -0.365,0.496 -0.548,1.074 -0.548,1.735 0,1.432 0.594,2.148 1.782,2.148 z M 427.903,108.771 c 3.656,2.203 6.81,5.123 9.46,8.758 2.651,3.636 4.571,7.767 5.759,12.394 v 0.165 c 0.457,1.102 1.188,1.542 2.193,1.322 0.914,-0.22 1.371,-0.936 1.371,-2.148 v -0.661 c -1.371,-5.288 -3.564,-9.998 -6.581,-14.129 -3.016,-4.131 -6.626,-7.353 -10.831,-9.667 -0.457,-0.22 -0.914,-0.248 -1.371,-0.082 -0.457,0.165 -0.777,0.523 -0.959,1.074 -0.457,1.212 -0.183,2.203 0.822,2.974 z m 472.181,0 c 3.656,2.203 6.809,5.123 9.46,8.758 2.651,3.636 4.57,7.767 5.758,12.394 v 0.165 c 0.457,1.102 1.188,1.542 2.194,1.322 0.914,-0.22 1.371,-0.936 1.371,-2.148 v -0.661 c -1.371,-5.288 -3.565,-9.998 -6.581,-14.129 -3.016,-4.131 -6.627,-7.353 -10.831,-9.667 -0.457,-0.22 -0.914,-0.248 -1.371,-0.082 -0.457,0.165 -0.777,0.523 -0.96,1.074 -0.457,1.212 -0.183,2.203 0.823,2.974 z m -477.528,-2.644 c 1.097,0 1.646,-0.661 1.646,-1.983 0,-0.551 -0.16,-1.019 -0.48,-1.404 -0.32,-0.386 -0.709,-0.579 -1.166,-0.579 -0.457,0 -0.845,0.193 -1.165,0.579 -0.32,0.385 -0.48,0.853 -0.48,1.404 0,0.551 0.16,1.019 0.48,1.405 0.32,0.385 0.708,0.578 1.165,0.578 z m 472.181,0 c 1.097,0 1.645,-0.661 1.645,-1.983 0,-0.551 -0.16,-1.019 -0.48,-1.404 -0.32,-0.386 -0.708,-0.579 -1.165,-0.579 -0.457,0 -0.846,0.193 -1.166,0.579 -0.319,0.385 -0.479,0.853 -0.479,1.404 0,0.551 0.16,1.019 0.479,1.405 0.32,0.385 0.709,0.578 1.166,0.578 z m -282.431,-0.496 c 0.457,0 0.891,-0.247 1.302,-0.743 0.412,-0.496 0.617,-1.019 0.617,-1.57 0,-0.661 -0.205,-1.239 -0.617,-1.735 -0.411,-0.496 -0.845,-0.744 -1.302,-0.744 -0.548,0 -1.028,0.248 -1.44,0.744 -0.411,0.496 -0.617,1.074 -0.617,1.735 0,0.551 0.206,1.074 0.617,1.57 0.412,0.496 0.892,0.743 1.44,0.743 z m 58.817,-0.165 c 0.457,0 0.891,-0.22 1.302,-0.661 0.412,-0.44 0.617,-0.936 0.617,-1.487 0,-0.661 -0.205,-1.212 -0.617,-1.652 -0.411,-0.441 -0.845,-0.661 -1.302,-0.661 h -52.922 c -1.279,0 -1.919,0.771 -1.919,2.313 0,1.432 0.64,2.148 1.919,2.148 z M 521.27,103.318 c 0,-1.432 -0.594,-2.148 -1.782,-2.148 -1.188,0 -1.783,0.716 -1.783,2.148 0,1.432 0.595,2.148 1.783,2.148 1.188,0 1.782,-0.716 1.782,-2.148 z"
   style="fill:url(#_Linear1);fill-rule:nonzero"
   id="path49" />
        </g>
    </g>
    <defs
   id="defs51">
        <linearGradient
   id="_Linear1"
   x1="0"
   y1="0"
   x2="1"
   y2="0"
   gradientUnits="userSpaceOnUse"
   gradientTransform="matrix(0,-310.484,310.484,0,640,407.027)"><stop
     offset="0"
     style="stop-color:rgb(0,1,255);stop-opacity:1"
     id="stop50" /><stop
     offset="1"
     style="stop-color:rgb(0,122,255);stop-opacity:1"
     id="stop51" /></linearGradient>
    </defs>
</svg>
